<?xml version="1.0" encoding="UTF-8"?>
<svg version="1.1" xmlns="http://www.w3.org/2000/svg" width="324" height="294">
<path d="M0 0 C106.92 0 213.84 0 324 0 C324 97.02 324 194.04 324 294 C217.08 294 110.16 294 0 294 C0 196.98 0 99.96 0 0 Z " fill="#FDFEFE" transform="translate(0,0)"/>
<path d="M0 0 C0.96831757 -0.00175232 1.93663513 -0.00350464 2.93429565 -0.00531006 C6.12784633 -0.00970225 9.32134136 -0.00679867 12.51489258 -0.00341797 C14.7444103 -0.00409204 16.97392796 -0.00506292 19.20344543 -0.00631714 C23.87636006 -0.00779078 28.54925557 -0.00565127 33.22216797 -0.00097656 C39.18914671 0.00470396 45.1560803 0.00145025 51.12305737 -0.00454903 C55.72921585 -0.00817778 60.33536379 -0.00700516 64.9415226 -0.00442123 C67.14018064 -0.0037575 69.33883967 -0.0045609 71.53749657 -0.00690079 C74.62398147 -0.00946355 77.71039534 -0.00553537 80.796875 0 C82.14005043 -0.00303635 82.14005043 -0.00303635 83.51036072 -0.00613403 C89.00946371 0.01197512 94.4071623 0.35564205 99.87700367 0.92740059 C102.34929654 1.18980804 102.34929654 1.18980804 105.34692383 1.00439453 C108.78771596 1.15399419 111.48898781 2.13741371 114.68286133 3.37548828 C117.39305965 4.26121911 117.39305965 4.26121911 121.01489258 4.55517578 C125.34117265 5.04422914 129.11905996 6.29943282 133.15942383 7.87939453 C134.20211426 8.27928589 134.20211426 8.27928589 135.26586914 8.68725586 C141.27015196 11.04287918 147.03166916 13.69053717 152.17895508 17.62548828 C154.26359062 19.16006702 156.36172988 20.31771724 158.65942383 21.50439453 C162.55813418 23.63388814 165.3688842 25.72415369 168.22192383 29.12939453 C168.22192383 29.78939453 168.22192383 30.44939453 168.22192383 31.12939453 C168.7762207 31.19642578 169.33051758 31.26345703 169.90161133 31.33251953 C183.23826225 35.91278349 195.20367774 58.07125771 201.18579102 69.94775391 C202.98350594 73.73295197 204.55233698 77.5859173 206.03442383 81.50439453 C206.3002124 82.19742676 206.56600098 82.89045898 206.83984375 83.60449219 C211.78813926 97.45225284 213.87988735 111.24017629 213.68847656 125.89868164 C213.65930018 128.3271867 213.66798099 130.75351953 213.6809082 133.18212891 C213.66398045 146.84144414 211.4931424 159.52372917 207.09692383 172.50439453 C206.79761963 173.38869141 206.49831543 174.27298828 206.18994141 175.18408203 C201.20356117 189.36032157 193.97332599 201.73221669 184.22192383 213.12939453 C183.77558594 213.65404297 183.32924805 214.17869141 182.86938477 214.71923828 C162.10378195 238.86460161 133.58414111 252.97285502 102.22192383 257.12939453 C98.26846225 257.39371893 94.33131904 257.43322425 90.36987305 257.43579102 C89.25276947 257.44411453 88.13566589 257.45243805 86.98471069 257.46101379 C83.33197441 257.48489712 79.67941713 257.49385647 76.02661133 257.50048828 C73.46696931 257.50946656 70.90732779 257.51858861 68.34768677 257.52784729 C63.00024823 257.54427766 57.65287582 257.55205977 52.30541992 257.55493164 C46.14762882 257.55857294 39.99033417 257.58853892 33.83269489 257.63033623 C27.8739743 257.66934553 21.91540169 257.68052657 15.95654678 257.68165779 C13.43605975 257.68585127 10.91557196 257.69825023 8.3951683 257.71917534 C4.86806944 257.74614526 1.34233617 257.74124771 -2.18481445 257.72875977 C-3.72963501 257.7510112 -3.72963501 257.7510112 -5.30566406 257.77371216 C-12.97715921 257.69668816 -19.54388696 255.82288215 -25.43200874 250.68666744 C-30.15986231 245.43650887 -31.02382704 239.79334257 -31.13208008 232.94995117 C-31.14522247 232.25806198 -31.15836487 231.56617279 -31.17190552 230.85331726 C-31.21106899 228.58205632 -31.23462069 226.31105716 -31.25463867 224.03955078 C-31.26278973 223.25944578 -31.27094078 222.47934078 -31.27933884 221.67559624 C-31.32092126 217.55026206 -31.34958951 213.42505837 -31.3684082 209.29956055 C-31.39057222 205.05088056 -31.45944145 200.80428571 -31.5387516 196.55634403 C-31.59113838 193.27652714 -31.60779541 189.99720701 -31.61497116 186.71700859 C-31.62468191 185.1512682 -31.64785214 183.58554846 -31.68504715 182.0202198 C-31.95768943 169.79132829 -31.95768943 169.79132829 -29.10926819 165.77824402 C-27.08719692 164.03588128 -24.9988815 162.60381509 -22.77807617 161.12939453 C-21.1607429 159.17002609 -19.54944544 157.20564952 -17.94604492 155.23486328 C-14.08748703 151.04793606 -10.87752976 149.47378269 -5.18367004 149.09187317 C-1.12548297 149.0286304 2.85042471 149.21344373 6.90942383 149.44189453 C12.62254883 149.66876953 18.33567383 149.89564453 24.22192383 150.12939453 C24.22192383 167.61939453 24.22192383 185.10939453 24.22192383 203.12939453 C37.69482464 203.09649057 37.69482464 203.09649057 51.16723633 203.01806641 C56.674773 202.97594681 62.18198532 202.93877378 67.68969727 202.93383789 C72.13801537 202.92950998 76.58560266 202.90068208 81.03369141 202.85596275 C82.71740435 202.84312948 84.4012054 202.83862878 86.08496094 202.84324074 C107.73535054 202.88866382 126.85718695 196.14242781 142.59692383 180.81689453 C158.01340441 164.56709068 162.84314725 145.56961928 162.56567383 123.77392578 C161.96487167 106.32312649 155.5940208 91.30349402 144.22192383 78.12939453 C143.65086914 77.46294922 143.07981445 76.79650391 142.49145508 76.10986328 C136.64198327 69.78644706 129.56498331 65.502325 122.22192383 61.12939453 C121.50004883 60.69498047 120.77817383 60.26056641 120.03442383 59.81298828 C108.0710557 53.23829244 95.50295066 52.52687569 82.22973633 52.52001953 C80.54579103 52.50499955 78.86186025 52.48826457 77.177948 52.46990967 C72.79525997 52.42665158 68.41277046 52.40633056 64.02990723 52.39117432 C58.74481042 52.36796981 53.45992804 52.31558966 48.17500305 52.26823425 C40.19058814 52.19988931 32.20678544 52.16806214 24.22192383 52.12939453 C24.22192383 64.99939453 24.22192383 77.86939453 24.22192383 91.12939453 C14.22192383 91.12939453 14.22192383 91.12939453 10.40161133 88.35595703 C9.27336322 87.18047993 8.17166773 85.97898253 7.09692383 84.75439453 C6.52200195 84.15111328 5.94708008 83.54783203 5.35473633 82.92626953 C1.22192383 78.49825614 1.22192383 78.49825614 1.22192383 76.12939453 C0.39047852 76.16419922 -0.4409668 76.19900391 -1.29760742 76.23486328 C-2.92762695 76.27546875 -2.92762695 76.27546875 -4.59057617 76.31689453 C-5.66952148 76.35169922 -6.7484668 76.38650391 -7.86010742 76.42236328 C-11.18218506 76.08882135 -11.65730066 75.52301835 -13.77807617 73.12939453 C-17.32007258 72.71266246 -17.32007258 72.71266246 -20.77807617 73.12939453 C-23.13447025 75.06828699 -23.13447025 75.06828699 -23.15307617 78.56689453 C-23.1253656 82.10505708 -23.1253656 82.10505708 -21.09057617 84.06689453 C-18.31439931 85.34243525 -16.79671468 85.65765627 -13.77807617 85.12939453 C-12.91182617 84.13939453 -12.91182617 84.13939453 -12.02807617 83.12939453 C-9.04969728 80.48194663 -7.01468188 80.32306341 -3.10229492 80.46533203 C1.33719886 81.73375883 3.72836757 85.43358794 6.22192383 89.12939453 C6.55192383 89.78939453 6.88192383 90.44939453 7.22192383 91.12939453 C-5.64807617 91.12939453 -18.51807617 91.12939453 -31.77807617 91.12939453 C-31.64883668 74.27032501 -31.64883668 74.27032501 -31.5690918 67.04150391 C-31.51492328 62.12380909 -31.4638078 57.20622445 -31.43164062 52.28833008 C-31.40548395 48.31996738 -31.36499604 44.35197818 -31.31488991 40.38384819 C-31.29830426 38.87577424 -31.28673858 37.36763581 -31.28046227 35.85948372 C-31.18930983 15.95575457 -31.18930983 15.95575457 -23.84057617 8.25439453 C-23.17155273 7.53509766 -22.5025293 6.81580078 -21.81323242 6.07470703 C-15.17585009 -0.26966226 -8.80804304 -0.01968869 0 0 Z " fill="#376EBC" transform="translate(101.778076171875,17.87060546875)"/>
<path d="M0 0 C0.99 0.495 0.99 0.495 2 1 C1.39671875 1.4846875 0.7934375 1.969375 0.171875 2.46875 C-6.2064361 7.81830125 -10.31063036 12.75644875 -12 21 C-12.11521536 23.23017122 -12.17637652 25.46333129 -12.20532227 27.69628906 C-12.21522186 28.36011597 -12.22512146 29.02394287 -12.23532104 29.70788574 C-12.2668126 31.89376302 -12.29164437 34.079662 -12.31640625 36.265625 C-12.33698645 37.78449049 -12.35798321 39.30335038 -12.37937927 40.82220459 C-12.43448984 44.81371525 -12.48394753 48.80527665 -12.53222656 52.796875 C-12.59137 57.58940158 -12.6575372 62.38183571 -12.72252655 67.17428589 C-12.82039745 74.44946731 -12.90934818 81.7247089 -13 89 C-0.79 89 11.42 89 24 89 C21.69 86.69 19.38 84.38 17 82 C17 81.34 17 80.68 17 80 C10.85116943 80.05392994 10.85116943 80.05392994 5.875 83.125 C5.25625 83.74375 4.6375 84.3625 4 85 C0.53045455 84.93913078 -1.91947278 84.6274029 -4.9375 82.875 C-6.64550843 79.86086748 -6.36204814 77.37911601 -6 74 C-4.9375 72.0625 -4.9375 72.0625 -3 71 C1.36706908 70.61008312 3.30513897 70.53675931 7 73 C7 73.66 7 74.32 7 75 C7.78503906 74.9071875 8.57007812 74.814375 9.37890625 74.71875 C17.82348608 74.13850893 17.82348608 74.13850893 21.14453125 76.5703125 C22.8914233 78.64450035 24.46382184 80.76592366 26 83 C27.90345202 85.48668244 29.48943427 86.98170206 32 89 C35.3 89.33 38.6 89.66 42 90 C42 77.13 42 64.26 42 51 C60.40548695 50.83956476 60.40548695 50.83956476 68.33203125 50.8046875 C73.71256555 50.78089948 79.09282415 50.75294979 84.47314453 50.69824219 C88.81742217 50.65435235 93.16140361 50.63077327 97.50588608 50.62049103 C99.15226775 50.61317617 100.79863569 50.59889531 102.44488907 50.57707977 C123.47293448 50.30984676 141.26596328 56.78511166 157 71 C157.76828125 71.67546875 158.5365625 72.3509375 159.328125 73.046875 C172.6529509 85.46525016 180.583896 103.90706843 181.46875 122.078125 C181.50262561 124.13516412 181.51256502 126.19272033 181.5 128.25 C181.49500488 129.33756592 181.49000977 130.42513184 181.48486328 131.5456543 C181.28568298 140.81303313 179.64281373 148.51937545 176 157 C175.55398438 158.0725 175.10796875 159.145 174.6484375 160.25 C167.37207608 176.18482502 153.45835209 190.26342866 137.06787109 196.76660156 C132.76150192 198.34293829 128.40366388 199.71912661 124 201 C123.43001282 201.18215561 122.86002563 201.36431122 122.27276611 201.55198669 C118.98486857 202.20010523 115.72254453 202.13030458 112.38574219 202.11352539 C111.62437958 202.11367142 110.86301697 202.11381744 110.07858276 202.1139679 C107.56798429 202.11327255 105.05746048 202.10549787 102.546875 202.09765625 C100.80381308 202.09579073 99.06075063 202.09436746 97.31768799 202.09336853 C92.73427884 202.08955394 88.15090149 202.07973267 83.56750488 202.06866455 C78.06586361 202.05662725 72.56421171 202.05204315 67.06256104 202.04621124 C58.70835193 202.03652036 50.35421254 202.0173564 42 202 C42 184.51 42 167.02 42 149 C20.17608193 146.90155758 20.17608193 146.90155758 -0.10546875 153.8515625 C-3.79071495 157.36945033 -6.94994775 161.2230638 -9.78369141 165.45532227 C-10.18507324 165.96506592 -10.58645508 166.47480957 -11 167 C-11.66 167 -12.32 167 -13 167 C-13 190.1 -13 213.2 -13 237 C-13.33 237 -13.66 237 -14 237 C-14 213.9 -14 190.8 -14 167 C-27.86 167 -41.72 167 -56 167 C-56.99 168.98 -56.99 168.98 -58 171 C-60.80915474 172.40457737 -62.88810534 172.24895157 -66 172 C-68.375 170.5 -68.375 170.5 -70 169 C-69.625 166.5625 -69.625 166.5625 -69 164 C-68.34 163.67 -67.68 163.34 -67 163 C-66.67 163.99 -66.34 164.98 -66 166 C-64.35 166 -62.7 166 -61 166 C-61.33 164.35 -61.66 162.7 -62 161 C-62.99 160.67 -63.98 160.34 -65 160 C-65.33 159.01 -65.66 158.02 -66 157 C-62.6875 156.8125 -62.6875 156.8125 -59 157 C-58.51548874 157.48994949 -58.03097748 157.97989899 -57.53178406 158.48469543 C-55.55661428 160.43861561 -54.54439417 160.39122531 -51.80395508 160.43237305 C-50.54298759 160.46206429 -50.54298759 160.46206429 -49.25654602 160.49235535 C-48.35333115 160.49874527 -47.45011627 160.50513519 -46.51953125 160.51171875 C-45.59154221 160.52966995 -44.66355316 160.54762115 -43.70744324 160.56611633 C-40.74250843 160.62031291 -37.77773545 160.654145 -34.8125 160.6875 C-32.80271181 160.72066482 -30.792945 160.75515369 -28.78320312 160.79101562 C-23.85558535 160.87604479 -18.92801636 160.94281138 -14 161 C-14 155.06 -14 149.12 -14 143 C-22.81446413 143.38301279 -22.81446413 143.38301279 -30 148 C-33.8137751 148 -36.02424548 147.84985071 -38.9375 145.3125 C-40.33817538 142.26397123 -40.4842732 140.32073048 -40 137 C-38.5 134.625 -38.5 134.625 -36 133 C-33.09270888 132.47937845 -31.01793785 132.66467357 -28 133 C-27.31164063 133.73476563 -27.31164063 133.73476563 -26.609375 134.484375 C-24.30861331 136.65111173 -22.41762618 136.50484552 -19.3125 136.6875 C-16.6828125 136.8421875 -16.6828125 136.8421875 -14 137 C-14 132.71 -14 128.42 -14 124 C-20.6 123.67 -27.2 123.34 -34 123 C-34.66 124.32 -35.32 125.64 -36 127 C-38 129 -38 129 -40.8125 129.4375 C-44 129 -44 129 -46.875 126.875 C-49 124 -49 124 -49.625 121 C-48.76814736 116.88710733 -47.42264067 115.40313068 -44 113 C-40.375 113 -40.375 113 -37 114 C-36.53166748 114.5050708 -36.06333496 115.0101416 -35.58081055 115.53051758 C-33.47648849 117.48664336 -32.17228264 117.42126488 -29.33203125 117.51171875 C-27.99301758 117.56489258 -27.99301758 117.56489258 -26.62695312 117.61914062 C-25.69818359 117.64169922 -24.76941406 117.66425781 -23.8125 117.6875 C-22.87212891 117.72166016 -21.93175781 117.75582031 -20.96289062 117.79101562 C-18.6423464 117.87347151 -16.32119183 117.93841303 -14 118 C-14 115.03 -14 112.06 -14 109 C-15.07378906 109.0928125 -16.14757812 109.185625 -17.25390625 109.28125 C-28.5416844 109.9645552 -28.5416844 109.9645552 -32.48046875 107.359375 C-34.18945842 105.32216877 -35.60238424 103.25868552 -37 101 C-37.804375 100.21625 -38.60875 99.4325 -39.4375 98.625 C-41 97 -41 97 -41 95 C-44.58451309 95.05189759 -48.16662051 95.14697784 -51.75 95.25 C-53.27367187 95.27126953 -53.27367187 95.27126953 -54.828125 95.29296875 C-60.60431317 95.32485071 -60.60431317 95.32485071 -65.484375 98.01171875 C-65.98453125 98.66785156 -66.4846875 99.32398437 -67 100 C-70.5 100.5625 -70.5 100.5625 -74 100 C-76.96135546 97.41830549 -77.86756104 95.81118865 -78.5 91.9375 C-78 89 -78 89 -76.4375 86.625 C-73.06489221 84.37659481 -70.97487617 84.43216055 -67 85 C-66.49597656 85.6703125 -65.99195313 86.340625 -65.47265625 87.03125 C-61.43574008 90.2454771 -56.92188882 89.1574349 -51.9375 89 C-40.33708423 88.98568733 -40.33708423 88.98568733 -36.56640625 92.6875 C-35.22119746 94.29980449 -34.02417827 95.96536219 -32.82275391 97.68652344 C-30.49087625 100.85265457 -28.84537573 102.36799549 -25.01953125 103.015625 C-21.33478246 103.33663185 -17.689801 103.2589334 -14 103 C-13.89442129 97.29874944 -14.99019471 94.51387125 -18.8125 90.25 C-20.53981122 88.49816859 -22.26913652 86.74832176 -24 85 C-24.93104796 83.91576256 -25.85535032 82.82570254 -26.7734375 81.73046875 C-32.2563426 75.22584745 -32.2563426 75.22584745 -39.87890625 72.01953125 C-43.3098172 71.78064845 -46.57349541 71.73642272 -50 72 C-50.28875 72.639375 -50.5775 73.27875 -50.875 73.9375 C-52 76 -52 76 -54 77 C-57.87424565 77.35872645 -60.14933906 77.56710729 -63.4375 75.375 C-65.49791771 72.24316508 -65.6767545 70.68455227 -65 67 C-62.9375 64.0625 -62.9375 64.0625 -60 62 C-56.375 62 -56.375 62 -53 63 C-52.56816406 63.52722656 -52.13632812 64.05445312 -51.69140625 64.59765625 C-49.99618941 66.33045335 -49.99618941 66.33045335 -47.12890625 65.80859375 C-45.95199219 65.68613281 -44.77507813 65.56367187 -43.5625 65.4375 C-34.49927197 65.73669239 -30.44147746 70.72365377 -24.46484375 77.09765625 C-23.09193176 78.51794128 -23.09193176 78.51794128 -21.69128418 79.96691895 C-19.44415705 82.29621331 -17.21503309 84.64023379 -15 87 C-14.99857498 86.14524078 -14.99714996 85.29048157 -14.99568176 84.40982056 C-14.97778526 76.31878671 -14.93597581 68.22829512 -14.86790943 60.13752174 C-14.83375008 55.97881614 -14.80854682 51.82047357 -14.80444336 47.66162109 C-14.80013645 43.64122728 -14.7714783 39.62165086 -14.72656822 35.60151291 C-14.71366903 34.07472893 -14.70925843 32.54784674 -14.71384621 31.02101517 C-14.7364402 21.21032462 -14.27602914 12.43229603 -7.09846497 5.04214478 C-4.85184799 3.02361571 -2.70329417 1.35164708 0 0 Z " fill="#4071BD" transform="translate(84,19)"/>
<path d="M0 0 C18.40548695 -0.16043524 18.40548695 -0.16043524 26.33203125 -0.1953125 C31.71256555 -0.21910052 37.09282415 -0.24705021 42.47314453 -0.30175781 C46.81742217 -0.34564765 51.16140361 -0.36922673 55.50588608 -0.37950897 C57.15226775 -0.38682383 58.79863569 -0.40110469 60.44488907 -0.42292023 C81.47293448 -0.69015324 99.26596328 5.78511166 115 20 C115.76828125 20.67546875 116.5365625 21.3509375 117.328125 22.046875 C130.6529509 34.46525016 138.583896 52.90706843 139.46875 71.078125 C139.50262561 73.13516412 139.51256502 75.19272033 139.5 77.25 C139.49500488 78.33756592 139.49000977 79.42513184 139.48486328 80.5456543 C139.28568298 89.81303313 137.64281373 97.51937545 134 106 C133.55398438 107.0725 133.10796875 108.145 132.6484375 109.25 C125.37207608 125.18482502 111.45835209 139.26342866 95.06787109 145.76660156 C90.76150192 147.34293829 86.40366388 148.71912661 82 150 C81.43001282 150.18215561 80.86002563 150.36431122 80.27276611 150.55198669 C76.98486857 151.20010523 73.72254453 151.13030458 70.38574219 151.11352539 C69.62437958 151.11367142 68.86301697 151.11381744 68.07858276 151.1139679 C65.56798429 151.11327255 63.05746048 151.10549787 60.546875 151.09765625 C58.80381308 151.09579073 57.06075063 151.09436746 55.31768799 151.09336853 C50.73427884 151.08955394 46.15090149 151.07973267 41.56750488 151.06866455 C36.06586361 151.05662725 30.56421171 151.05204315 25.06256104 151.04621124 C16.70835193 151.03652036 8.35421254 151.0173564 0 151 C0 133.51 0 116.02 0 98 C-21.57878971 95.95733773 -21.57878971 95.95733773 -41.84765625 102.62890625 C-45.28594096 105.92157648 -48.19392053 109.53968928 -50.76196289 113.54711914 C-51.17051514 114.02656982 -51.57906738 114.50602051 -52 115 C-52.99 115 -53.98 115 -55 115 C-54.65954672 108.9172348 -50.24963398 105.7896359 -46.12890625 101.81640625 C-45.58878906 101.26855469 -45.04867187 100.72070312 -44.4921875 100.15625 C-43.99058105 99.66962891 -43.48897461 99.18300781 -42.97216797 98.68164062 C-41.51117405 96.58171228 -41.51117405 96.58171228 -43 92 C-46.96 91.67 -50.92 91.34 -55 91 C-55 89.68 -55 88.36 -55 87 C-52.58145554 86.86463371 -50.17050217 86.76579721 -47.75 86.6875 C-47.06808594 86.64560547 -46.38617188 86.60371094 -45.68359375 86.56054688 C-43.671875 86.51171875 -43.671875 86.51171875 -40 87 C-39.16130371 88.23834595 -39.16130371 88.23834595 -38.30566406 89.50170898 C-36.11821791 92.40049565 -36.11821791 92.40049565 -32.12109375 92.54833984 C-30.55963618 92.54217664 -28.99814848 92.51157389 -27.4375 92.4609375 C-25.73697989 92.4578982 -24.03645893 92.45530772 -22.3359375 92.453125 C-19.66273273 92.41967304 -16.99022155 92.3747971 -14.31738281 92.31933594 C-11.73171426 92.27460777 -9.14849382 92.27208552 -6.5625 92.2734375 C-5.76448975 92.24349701 -4.96647949 92.21355652 -4.14428711 92.18270874 C-1.87890625 92.19287109 -1.87890625 92.19287109 2 93 C3.88634468 95.1933156 4.76938374 97.32630521 6 100 C7.03125 100.804375 8.0625 101.60875 9.125 102.4375 C12.24358023 105.21710412 12.74623715 106.86352614 13.52734375 110.8828125 C14.90404554 117.04952628 17.70341761 121.54484293 23 124.9921875 C25.19114613 126.09631973 27.33056472 126.76298234 29.6875 127.4375 C34.31175362 128.81543416 35.45418294 130.89384345 38 135 C42.27861847 139.03682922 46.28008812 140.34046146 52.125 140.5 C57.5571394 140.24035057 61.57564832 139.54072056 65.46484375 135.46484375 C66.69715106 134.02089363 67.85563712 132.51459793 69 131 C69.53625 131.7425 70.0725 132.485 70.625 133.25 C74.14966883 137.33119548 77.21466082 139.72073983 82.62109375 140.56640625 C91.88004612 140.77524885 91.88004612 140.77524885 99.7421875 136.56640625 C101.07374029 134.90816815 101.907568 133.29492329 102.8125 131.375 C104.04439269 128.90590475 104.62113899 128.15407904 107.21875 127.09765625 C108.96688356 126.65272467 110.71559633 126.21006337 112.46484375 125.76953125 C116.66634772 124.49419029 119.4717734 122.61077349 122 119 C123.12338813 115.78244682 123.97522512 112.54299639 124.8359375 109.24609375 C126.40514091 104.87022786 128.9551632 102.38001967 132.16015625 99.109375 C136.55913514 94.06595972 137.48441737 87.78298492 137.22265625 81.26171875 C136.7042845 75.99615313 136.11261047 71.51719609 132.9375 67.1875 C130.82006198 63.70397294 130.73218043 62.11249 130.5625 58.125 C130.27366436 52.32662457 128.85048736 48.37828002 125 44 C124.34 43.67 123.68 43.34 123 43 C122.61328125 41.21484375 122.61328125 41.21484375 122.3125 38.9375 C121.19312278 33.33165887 118.24038282 29.73046337 114 26 C111.40588345 24.46643398 109.99010816 23.99899063 106.9375 23.6875 C104 23 104 23 102.5 20.75 C102.005 19.8425 101.51 18.935 101 18 C95.24095694 12.73108826 91.37483182 10.46409112 83.60546875 10.61328125 C78.34687639 11.39379196 74.4234455 14.24441722 71.125 18.3125 C70.568125 19.1478125 70.568125 19.1478125 70 20 C69.34 20 68.68 20 68 20 C67.443125 19.2575 66.88625 18.515 66.3125 17.75 C63.08740109 13.91474724 59.79649522 11.56137822 54.8984375 10.578125 C48.50733748 10.17162394 43.19625314 12.36167285 38 16 C37.34 17.010625 36.68 18.02125 36 19.0625 C33.73089864 22.39524262 32.80445449 22.66006328 29.125 23.9375 C23.87870173 25.83049422 20.76276829 28.10489377 18 33 C17.13261107 35.54646292 16.44468878 38.09675836 15.78125 40.703125 C14.66189853 43.99401832 12.57980807 45.75093655 10 48 C7.88991468 51.29290132 7.75160911 54.07592225 7.625 57.9375 C7.29935561 62.89453125 6.67087759 65.44383734 3 69 C2.505 70.485 2.505 70.485 2 72 C-3.94 72 -9.88 72 -16 72 C-16.495 73.485 -16.495 73.485 -17 75 C-19.84083641 76.42041821 -21.85477278 76.31452272 -25 76 C-27.375 74.375 -27.375 74.375 -29 72 C-29.60975382 68.34147708 -29.44543026 66.69487121 -27.4375 63.5625 C-25 62 -25 62 -21.375 62 C-20.26125 62.33 -19.1475 62.66 -18 63 C-17.34 64.32 -16.68 65.64 -16 67 C-10.72 67 -5.44 67 0 67 C0 63.7 0 60.4 0 57 C-18.15 57 -36.3 57 -55 57 C-55 55.68 -55 54.36 -55 53 C-36.85 53 -18.7 53 0 53 C0 50.36 0 47.72 0 45 C-17.82 45 -35.64 45 -54 45 C-54 43.35 -54 41.7 -54 40 C-41.79 40 -29.58 40 -17 40 C-19.31 37.36 -21.62 34.72 -24 32 C-24.33 31.01 -24.66 30.02 -25 29 C-31.14883057 29.05392994 -31.14883057 29.05392994 -36.125 32.125 C-36.74375 32.74375 -37.3625 33.3625 -38 34 C-41.46954545 33.93913078 -43.91947278 33.6274029 -46.9375 31.875 C-48.64550843 28.86086748 -48.36204814 26.37911601 -48 23 C-46.9375 21.0625 -46.9375 21.0625 -45 20 C-40.63293092 19.61008312 -38.69486103 19.53675931 -35 22 C-35 22.66 -35 23.32 -35 24 C-33.82244141 23.86078125 -33.82244141 23.86078125 -32.62109375 23.71875 C-24.17651392 23.13850893 -24.17651392 23.13850893 -20.85546875 25.5703125 C-19.1085767 27.64450035 -17.53617816 29.76592366 -16 32 C-14.09654798 34.48668244 -12.51056573 35.98170206 -10 38 C-6.7 38.33 -3.4 38.66 0 39 C0 26.13 0 13.26 0 0 Z " fill="#F8FAFB" transform="translate(126,70)"/>
<path d="M0 0 C4.42678524 1.86651766 7.01249552 4.42776757 8.9375 8.8125 C9.288125 9.864375 9.63875 10.91625 10 12 C10.56847656 11.979375 11.13695312 11.95875 11.72265625 11.9375 C16.68426204 12.07003037 19.55491962 12.87741698 23.0625 16.5 C26.14952073 20.42634895 26.65217351 23.40639355 26.24609375 28.3125 C26.16488281 28.869375 26.08367187 29.42625 26 30 C26.5775 30.226875 27.155 30.45375 27.75 30.6875 C30.69445037 32.40509605 32.16055502 34.12965729 34 37 C34.43359375 40.0859375 34.43359375 40.0859375 34.4375 43.375 C34.7138822 49.6396632 35.9330925 52.32305637 40 57 C41.93804434 62.81413301 42.08282004 70.19419848 39.75 75.9375 C36.84884853 81.01451507 34.74641275 84.24415166 29 86 C29.0825 87.155 29.165 88.31 29.25 89.5 C29.22401707 94.3847914 27.93438683 98.08748423 25 102 C21.51214449 105.14348497 18.22464417 106.21699367 13.5625 106.25 C12.386875 106.1675 11.21125 106.085 10 106 C9.79375 107.051875 9.5875 108.10375 9.375 109.1875 C8.12049188 113.66918482 5.73490493 115.35444234 2 118 C-1.73163642 119.86581821 -5.93674501 119.55464677 -10 119 C-13.27790007 117.39436196 -15.36364842 115.15250361 -17.14007568 111.93519592 C-18.38435669 107.68806803 -18.27816472 103.62820744 -18.25878906 99.22436523 C-18.2622937 98.24494965 -18.26579834 97.26553406 -18.26940918 96.25643921 C-18.27820126 93.02375166 -18.27238662 89.79128347 -18.265625 86.55859375 C-18.26697226 84.31087705 -18.26891331 82.06316064 -18.27142334 79.81544495 C-18.27437109 75.10715965 -18.27008769 70.39895029 -18.26074219 65.69067383 C-18.24934136 59.65230747 -18.2559134 53.61411879 -18.26788712 47.57575893 C-18.27510948 42.93555865 -18.27281615 38.29540059 -18.26763153 33.65519905 C-18.26629642 31.42842653 -18.26793791 29.20165019 -18.27259064 26.97488213 C-18.27766268 23.86523129 -18.26993618 20.75586951 -18.25878906 17.64624023 C-18.26283752 16.72405197 -18.26688599 15.80186371 -18.27105713 14.85173035 C-18.26541748 14.00362793 -18.25977783 13.15552551 -18.25396729 12.28172302 C-18.25321323 11.54709556 -18.25245918 10.81246809 -18.25168228 10.05557919 C-17.78306712 6.22823163 -16.34025974 4.30623376 -13.5 1.75 C-8.84108059 -0.57945971 -5.11468673 -0.9225859 0 0 Z " fill="#F7F9FA" transform="translate(217,86)"/>
<path d="M0 0 C3.4247538 1.90995885 6.48353292 3.97715418 9 7 C9.38031673 8.93976879 9.38031673 8.93976879 9.38768005 11.179245 C9.39758469 12.03005142 9.40748932 12.88085785 9.41769409 13.75744629 C9.41094162 15.153078 9.41094162 15.153078 9.40405273 16.5769043 C9.41091599 17.55935623 9.41777924 18.54180817 9.42485046 19.55403137 C9.4431919 22.81090646 9.43926887 26.06730294 9.43359375 29.32421875 C9.43815356 31.58763283 9.44345853 33.85104551 9.44947815 36.11445618 C9.45842484 40.8650168 9.45597016 45.61540949 9.44604492 50.3659668 C9.43458114 56.44451104 9.45471946 62.52247214 9.48396206 68.60093975 C9.50234362 73.2790748 9.50202717 77.95707081 9.49632454 82.63523293 C9.49617142 84.87545398 9.50220829 87.11568451 9.51461601 89.3558712 C9.52955233 92.49632188 9.51882702 95.63570494 9.50170898 98.77612305 C9.51621094 100.15657303 9.51621094 100.15657303 9.53100586 101.56491089 C9.46552765 107.32367441 8.65236949 112.35875116 5 117 C0.7588228 119.53253259 -3.16585077 119.68819486 -8 119 C-11.90552693 116.97491196 -14.79152145 114.83577853 -17 111 C-17.6875 108.25 -17.6875 108.25 -18 106 C-18.58007812 106.04640625 -19.16015625 106.0928125 -19.7578125 106.140625 C-25.41927486 106.40221072 -28.53377393 105.82819378 -33 102 C-35.79279823 98.89014496 -36.36128965 96.68397294 -36.75 92.5625 C-37.28619636 88.61751203 -37.28619636 88.61751203 -39.50390625 85.48828125 C-40.72211076 84.73841455 -41.94762166 84.00030479 -43.1796875 83.2734375 C-46.8423828 80.71112276 -48.61569942 77.17127741 -50 73 C-51.12047623 64.96992037 -50.37895268 58.82601447 -46 52 C-45.34 51.34 -44.68 50.68 -44 50 C-43.7998211 48.08972135 -43.68708098 46.16973489 -43.625 44.25 C-43.27163708 39.07354316 -42.56275337 35.96992519 -39 32 C-37.9171875 31.3503125 -37.9171875 31.3503125 -36.8125 30.6875 C-34.53364268 28.56580525 -34.74460393 27.72256557 -34.5625 24.6875 C-34.22957345 19.5854006 -32.62411322 17.53572021 -29 14 C-25.78548731 12.39274365 -22.56387464 12.94251815 -19 13 C-18.814375 12.13375 -18.62875 11.2675 -18.4375 10.375 C-16.57799562 6.00920711 -13.87898489 3.65222352 -10 1 C-6.38069302 -0.20643566 -3.80768995 -0.32268559 0 0 Z " fill="#F7F9FA" transform="translate(182,86)"/>
<path d="M0 0 C3.48147224 1.91744151 6.45334044 4.19478977 8.99609375 7.24609375 C8.99609375 7.90609375 8.99609375 8.56609375 8.99609375 9.24609375 C9.65609375 8.52421875 10.31609375 7.80234375 10.99609375 7.05859375 C15.69435103 2.45245916 20.23679132 -1.01550289 26.99609375 -1.37890625 C33.8423891 -1.01082585 38.00550848 2.50433164 42.99609375 6.87109375 C44.99609375 9.24609375 44.99609375 9.24609375 44.99609375 12.24609375 C46.29546875 12.12234375 46.29546875 12.12234375 47.62109375 11.99609375 C53.19099858 12.40867929 56.53657062 15.56254376 60.30859375 19.43359375 C63.59461265 23.38024831 63.97334484 27.22995938 63.99609375 32.24609375 C65.48109375 32.74109375 65.48109375 32.74109375 66.99609375 33.24609375 C71.88370924 38.40210431 72.40039967 43.65353286 72.69140625 50.4921875 C73.10200628 54.20338004 74.81481063 56.27161676 76.99609375 59.24609375 C79.80215929 67.33872475 80.0897133 75.93604906 77.1796875 84.01171875 C75.79706434 86.62181924 74.12347824 88.38891181 72.05859375 90.49609375 C68.55275873 94.12281964 67.2409652 96.99209085 65.99609375 101.87109375 C64.27887011 108.39654359 61.66558105 111.66297778 55.99609375 115.24609375 C52.51691261 117.1070511 49.92149696 117.4704025 45.99609375 117.24609375 C45.62484375 118.32890625 45.62484375 118.32890625 45.24609375 119.43359375 C42.96341708 124.56961625 40.02929181 127.77132185 34.99609375 130.24609375 C28.14292253 131.23608153 20.96955968 131.70925239 15.18359375 127.43359375 C12.98188114 125.46517519 11.65992579 123.74184181 9.99609375 121.24609375 C9.62097656 121.72820312 9.24585938 122.2103125 8.859375 122.70703125 C8.34761719 123.33867187 7.83585937 123.9703125 7.30859375 124.62109375 C6.80972656 125.24757813 6.31085938 125.8740625 5.796875 126.51953125 C1.31259967 130.81898829 -4.09406238 130.73047298 -9.9921875 130.62890625 C-15.98001967 129.86780696 -19.59219064 126.83427381 -23.50390625 122.43359375 C-23.99890625 121.71171875 -24.49390625 120.98984375 -25.00390625 120.24609375 C-23.75413869 116.59292704 -23.33291872 115.46543539 -20.00390625 113.24609375 C-19.63265625 114.15359375 -19.26140625 115.06109375 -18.87890625 115.99609375 C-16.63747678 119.88123817 -15.04174654 121.30194843 -11.00390625 123.24609375 C-6.40992862 123.8841462 -1.85734666 124.09292115 1.99609375 121.24609375 C5.1143329 115.46328126 5.43850313 110.58237905 5.4284668 104.08813477 C5.43865845 103.09224838 5.4488501 102.096362 5.45935059 101.07029724 C5.48941052 97.79680707 5.498736 94.52360989 5.5078125 91.25 C5.52466434 88.97312961 5.54281526 86.69626849 5.56221008 84.41941833 C5.60966113 78.44034727 5.63950234 72.46131382 5.66564941 66.4821167 C5.69547949 60.37537204 5.74200148 54.26875691 5.78710938 48.16210938 C5.87308692 36.19017199 5.94045703 24.2182079 5.99609375 12.24609375 C5.00609375 11.91609375 4.01609375 11.58609375 2.99609375 11.24609375 C1.64240779 9.93342857 0.30809779 8.6004205 -1.00390625 7.24609375 C-4.07585533 5.71011921 -6.60634918 6.01958995 -10.00390625 6.24609375 C-14.70300056 7.99673673 -17.18878273 10.1239486 -20.00390625 14.24609375 C-20.26945312 14.93960938 -20.535 15.633125 -20.80859375 16.34765625 C-22.00390625 18.24609375 -22.00390625 18.24609375 -24.24609375 18.8984375 C-25.54933594 19.03958984 -25.54933594 19.03958984 -26.87890625 19.18359375 C-30.35248741 19.7750549 -31.7642029 20.05316179 -34.56640625 22.30859375 C-35.97360999 25.184184 -36.19797053 26.63916899 -36.37890625 29.74609375 C-36.64240783 33.8202336 -36.64240783 33.8202336 -38.3203125 35.796875 C-39.85037141 36.98774013 -41.42617797 38.11914498 -43.00390625 39.24609375 C-45.74074127 43.35592293 -45.3362016 47.78325713 -45.46484375 52.56640625 C-46.00390625 55.24609375 -46.00390625 55.24609375 -48.04296875 56.61328125 C-48.69007813 56.82210937 -49.3371875 57.0309375 -50.00390625 57.24609375 C-50.00390625 56.58609375 -50.00390625 55.92609375 -50.00390625 55.24609375 C-50.66390625 55.24609375 -51.32390625 55.24609375 -52.00390625 55.24609375 C-52.65573484 46.76025124 -52.74752443 40.67843674 -47.51171875 33.72265625 C-46.00390625 32.24609375 -46.00390625 32.24609375 -44.00390625 32.24609375 C-43.92140625 31.04984375 -43.83890625 29.85359375 -43.75390625 28.62109375 C-43.02134173 22.93117478 -40.30571378 19.24372902 -36.06640625 15.49609375 C-32.31499815 12.73995719 -29.67508634 11.24609375 -25.00390625 11.24609375 C-24.64619141 10.10914062 -24.64619141 10.10914062 -24.28125 8.94921875 C-22.7933688 5.80055273 -21.49027522 4.82051117 -18.56640625 2.99609375 C-17.78394531 2.4959375 -17.00148437 1.99578125 -16.1953125 1.48046875 C-11.25420218 -1.30275917 -5.37573932 -2.02245164 0 0 Z M15.99609375 9.24609375 C14.26411412 12.09247983 13.74467103 14.20832926 13.73539734 17.52108765 C13.72831253 18.3677449 13.72122772 19.21440216 13.71392822 20.0867157 C13.71640564 21.00733292 13.71888306 21.92795013 13.72143555 22.87646484 C13.71632462 23.85252182 13.71121368 24.8285788 13.70594788 25.83421326 C13.69204114 29.06271487 13.6930096 32.29100324 13.6953125 35.51953125 C13.69142593 37.76388631 13.68709134 40.00824063 13.68232727 42.25259399 C13.67486255 46.9584593 13.67515801 51.66424959 13.68041992 56.37011719 C13.68621223 62.39828419 13.66929033 68.42614371 13.64607525 74.45425987 C13.63133681 79.09025872 13.63046642 83.72618356 13.63358498 88.36220169 C13.63307174 90.58453607 13.62783349 92.80687458 13.61777306 95.02918625 C13.60542529 98.13863796 13.61219092 101.24749133 13.6237793 104.35693359 C13.61613556 105.27350235 13.60849182 106.19007111 13.60061646 107.13441467 C13.65287578 113.48435442 14.78769481 117.70308891 19.05859375 122.62109375 C23.36121863 125.00126922 27.1857802 125.01697733 31.99609375 124.24609375 C35.92912132 122.24382517 38.78184408 120.09189582 40.99609375 116.24609375 C41.71042496 113.59674553 41.71042496 113.59674553 41.99609375 111.24609375 C43.17171875 111.32859375 44.34734375 111.41109375 45.55859375 111.49609375 C50.22073792 111.46308742 53.50823824 110.38957872 56.99609375 107.24609375 C60.84080582 102.11981099 61.44354405 97.51039802 60.99609375 91.24609375 C61.69734375 91.08109375 62.39859375 90.91609375 63.12109375 90.74609375 C67.58780857 88.41563384 71.00500479 84.15368605 72.64453125 79.34375 C73.99567927 71.28190012 73.59581253 64.8610337 69.1875 57.890625 C68.09713683 56.29454406 68.09713683 56.29454406 66.99609375 55.24609375 C66.91622614 53.2050327 66.85743523 51.16313281 66.80859375 49.12109375 C66.43226795 43.41975792 65.46380546 40.37426313 61.46875 36.3203125 C60.03059619 35.04965445 60.03059619 35.04965445 57.99609375 35.24609375 C58.07730469 34.68921875 58.15851563 34.13234375 58.2421875 33.55859375 C58.64826726 28.6524873 58.14561448 25.6724427 55.05859375 21.74609375 C52.18289856 18.75350038 50.44171372 17.85558037 46.30859375 17.74609375 C45.54546875 17.73191406 44.78234375 17.71773437 43.99609375 17.703125 C41.99609375 17.24609375 41.99609375 17.24609375 40.74609375 15.5703125 C40.11938714 14.14194368 39.51390647 12.70407902 38.9296875 11.2578125 C37.34791193 7.84938397 35.37098453 6.74604521 31.99609375 5.24609375 C25.60072415 4.24616626 20.96051525 4.7781144 15.99609375 9.24609375 Z " fill="#3D73BE" transform="translate(185.00390625,80.75390625)"/>
<path d="M0 0 C0.99 0.495 0.99 0.495 2 1 C1.39671875 1.4846875 0.7934375 1.969375 0.171875 2.46875 C-6.2064361 7.81830125 -10.31063036 12.75644875 -12 21 C-12.11521536 23.23017122 -12.17637652 25.46333129 -12.20532227 27.69628906 C-12.21522186 28.36011597 -12.22512146 29.02394287 -12.23532104 29.70788574 C-12.2668126 31.89376302 -12.29164437 34.079662 -12.31640625 36.265625 C-12.33698645 37.78449049 -12.35798321 39.30335038 -12.37937927 40.82220459 C-12.43448984 44.81371525 -12.48394753 48.80527665 -12.53222656 52.796875 C-12.59137 57.58940158 -12.6575372 62.38183571 -12.72252655 67.17428589 C-12.82039745 74.44946731 -12.90934818 81.7247089 -13 89 C5.81 89.495 5.81 89.495 25 90 C25 90.33 25 90.66 25 91 C12.79 91 0.58 91 -12 91 C-12 92.65 -12 94.3 -12 96 C5.82 96 23.64 96 42 96 C42 98.64 42 101.28 42 104 C23.85 104 5.7 104 -13 104 C-13 105.32 -13 106.64 -13 108 C5.15 108 23.3 108 42 108 C42 108.33 42 108.66 42 109 C23.85 109 5.7 109 -13 109 C-13 111.97 -13 114.94 -13 118 C-12.12859375 117.86078125 -11.2571875 117.7215625 -10.359375 117.578125 C-6.2936084 117.20850985 -3.00964027 117.16345635 1 118 C2.92105081 119.96173872 4.44682653 121.75897916 6.0625 123.9375 C9.03236311 127.7722861 11.51645557 129.70510585 16.35302734 130.66650391 C24.88965319 131.45004847 33.44056146 131.3415659 42 131 C42 132.65 42 134.3 42 136 C37.69508537 136.12418758 33.3911365 136.21461002 29.08496094 136.2746582 C27.62221093 136.29970529 26.15958488 136.33375392 24.69726562 136.37719727 C22.58692781 136.43829356 20.47825248 136.46630435 18.3671875 136.48828125 C17.09987793 136.51446533 15.83256836 136.54064941 14.52685547 136.56762695 C9.8550183 135.81572183 8.36897456 134.26749943 5 131 C4.071875 130.13375 3.14375 129.2675 2.1875 128.375 C0 126 0 126 -1 123 C-1.57331055 123.03552979 -2.14662109 123.07105957 -2.73730469 123.10766602 C-23.79900736 124.37280439 -23.79900736 124.37280439 -34 123 C-34.28875 123.61875 -34.5775 124.2375 -34.875 124.875 C-36 127 -36 127 -38 129 C-40.8125 129.4375 -40.8125 129.4375 -44 129 C-47.32274404 126.54405875 -48.77618008 125.0743356 -49.625 121 C-48.76814736 116.88710733 -47.42264067 115.40313068 -44 113 C-40.375 113 -40.375 113 -37 114 C-36.53166748 114.5050708 -36.06333496 115.0101416 -35.58081055 115.53051758 C-33.47648849 117.48664336 -32.17228264 117.42126488 -29.33203125 117.51171875 C-27.99301758 117.56489258 -27.99301758 117.56489258 -26.62695312 117.61914062 C-25.69818359 117.64169922 -24.76941406 117.66425781 -23.8125 117.6875 C-22.87212891 117.72166016 -21.93175781 117.75582031 -20.96289062 117.79101562 C-18.6423464 117.87347151 -16.32119183 117.93841303 -14 118 C-14 115.03 -14 112.06 -14 109 C-15.07378906 109.0928125 -16.14757812 109.185625 -17.25390625 109.28125 C-28.5416844 109.9645552 -28.5416844 109.9645552 -32.48046875 107.359375 C-34.18945842 105.32216877 -35.60238424 103.25868552 -37 101 C-37.804375 100.21625 -38.60875 99.4325 -39.4375 98.625 C-41 97 -41 97 -41 95 C-44.58451309 95.05189759 -48.16662051 95.14697784 -51.75 95.25 C-53.27367187 95.27126953 -53.27367187 95.27126953 -54.828125 95.29296875 C-60.60431317 95.32485071 -60.60431317 95.32485071 -65.484375 98.01171875 C-65.98453125 98.66785156 -66.4846875 99.32398437 -67 100 C-70.5 100.5625 -70.5 100.5625 -74 100 C-76.96135546 97.41830549 -77.86756104 95.81118865 -78.5 91.9375 C-78 89 -78 89 -76.4375 86.625 C-73.06489221 84.37659481 -70.97487617 84.43216055 -67 85 C-66.49597656 85.6703125 -65.99195313 86.340625 -65.47265625 87.03125 C-61.43574008 90.2454771 -56.92188882 89.1574349 -51.9375 89 C-40.33708423 88.98568733 -40.33708423 88.98568733 -36.56640625 92.6875 C-35.22119746 94.29980449 -34.02417827 95.96536219 -32.82275391 97.68652344 C-30.49087625 100.85265457 -28.84537573 102.36799549 -25.01953125 103.015625 C-21.33478246 103.33663185 -17.689801 103.2589334 -14 103 C-13.89442129 97.29874944 -14.99019471 94.51387125 -18.8125 90.25 C-20.53981122 88.49816859 -22.26913652 86.74832176 -24 85 C-24.93104796 83.91576256 -25.85535032 82.82570254 -26.7734375 81.73046875 C-32.2563426 75.22584745 -32.2563426 75.22584745 -39.87890625 72.01953125 C-43.3098172 71.78064845 -46.57349541 71.73642272 -50 72 C-50.28875 72.639375 -50.5775 73.27875 -50.875 73.9375 C-52 76 -52 76 -54 77 C-57.87424565 77.35872645 -60.14933906 77.56710729 -63.4375 75.375 C-65.49791771 72.24316508 -65.6767545 70.68455227 -65 67 C-62.9375 64.0625 -62.9375 64.0625 -60 62 C-56.375 62 -56.375 62 -53 63 C-52.56816406 63.52722656 -52.13632812 64.05445312 -51.69140625 64.59765625 C-49.99618941 66.33045335 -49.99618941 66.33045335 -47.12890625 65.80859375 C-45.95199219 65.68613281 -44.77507813 65.56367187 -43.5625 65.4375 C-34.49927197 65.73669239 -30.44147746 70.72365377 -24.46484375 77.09765625 C-23.09193176 78.51794128 -23.09193176 78.51794128 -21.69128418 79.96691895 C-19.44415705 82.29621331 -17.21503309 84.64023379 -15 87 C-14.99857498 86.14524078 -14.99714996 85.29048157 -14.99568176 84.40982056 C-14.97778526 76.31878671 -14.93597581 68.22829512 -14.86790943 60.13752174 C-14.83375008 55.97881614 -14.80854682 51.82047357 -14.80444336 47.66162109 C-14.80013645 43.64122728 -14.7714783 39.62165086 -14.72656822 35.60151291 C-14.71366903 34.07472893 -14.70925843 32.54784674 -14.71384621 31.02101517 C-14.7364402 21.21032462 -14.27602914 12.43229603 -7.09846497 5.04214478 C-4.85184799 3.02361571 -2.70329417 1.35164708 0 0 Z " fill="#6BBAF0" transform="translate(84,19)"/>
<path d="M0 0 C0.33 0 0.66 0 1 0 C1 4.29 1 8.58 1 13 C5.62 13 10.24 13 15 13 C15 13.33 15 13.66 15 14 C10.38 14 5.76 14 1 14 C1 15.32 1 16.64 1 18 C1.84304687 17.96519531 2.68609375 17.93039063 3.5546875 17.89453125 C4.65039062 17.86746094 5.74609375 17.84039062 6.875 17.8125 C8.51082031 17.76029297 8.51082031 17.76029297 10.1796875 17.70703125 C11.11039062 17.80371094 12.04109375 17.90039062 13 18 C15 21 15 21 14.79296875 22.99414062 C13.91883084 25.20532198 12.9757568 26.40648293 11.3125 28.09375 C10.77882813 28.64933594 10.24515625 29.20492187 9.6953125 29.77734375 C8.56510417 30.92578125 7.43489583 32.07421875 6.3046875 33.22265625 C5.77101562 33.77824219 5.23734375 34.33382812 4.6875 34.90625 C4.19636719 35.40447266 3.70523438 35.90269531 3.19921875 36.41601562 C1.81554288 38.24363961 1.41106702 39.76331181 1 42 C1.99 42.495 1.99 42.495 3 43 C2.34 43 1.68 43 1 43 C1 66.1 1 89.2 1 113 C0.67 113 0.34 113 0 113 C0 89.9 0 66.8 0 43 C-13.86 43 -27.72 43 -42 43 C-42.66 44.32 -43.32 45.64 -44 47 C-46.80915474 48.40457737 -48.88810534 48.24895157 -52 48 C-54.375 46.5 -54.375 46.5 -56 45 C-55.625 42.5625 -55.625 42.5625 -55 40 C-54.01 39.505 -54.01 39.505 -53 39 C-52.67 39.99 -52.34 40.98 -52 42 C-50.35 42 -48.7 42 -47 42 C-47.33 40.35 -47.66 38.7 -48 37 C-48.99 36.67 -49.98 36.34 -51 36 C-51.495 34.515 -51.495 34.515 -52 33 C-48.6875 32.8125 -48.6875 32.8125 -45 33 C-44.27323311 33.73492424 -44.27323311 33.73492424 -43.53178406 34.48469543 C-41.55661428 36.43861561 -40.54439417 36.39122531 -37.80395508 36.43237305 C-36.96331009 36.45216721 -36.1226651 36.47196136 -35.25654602 36.49235535 C-34.35333115 36.49874527 -33.45011627 36.50513519 -32.51953125 36.51171875 C-31.12754768 36.53864555 -31.12754768 36.53864555 -29.70744324 36.56611633 C-26.74250843 36.62031291 -23.77773545 36.654145 -20.8125 36.6875 C-18.80271181 36.72066482 -16.792945 36.75515369 -14.78320312 36.79101562 C-9.85558535 36.87604479 -4.92801636 36.94281138 0 37 C0 31.06 0 25.12 0 19 C-8.81446413 19.38301279 -8.81446413 19.38301279 -16 24 C-19.8137751 24 -22.02424548 23.84985071 -24.9375 21.3125 C-26.33817538 18.26397123 -26.4842732 16.32073048 -26 13 C-24.5 10.625 -24.5 10.625 -22 9 C-19.09270888 8.47937845 -17.01793785 8.66467357 -14 9 C-13.31164063 9.73476562 -13.31164063 9.73476562 -12.609375 10.484375 C-10.30861331 12.65111173 -8.41762618 12.50484552 -5.3125 12.6875 C-3.559375 12.790625 -1.80625 12.89375 0 13 C0 8.71 0 4.42 0 0 Z " fill="#BBC5DB" transform="translate(70,143)"/>
<path d="M0 0 C3.375 1 3.375 1 4.61547852 2.55688477 C7.40591795 4.84553295 10.47178226 4.24033951 13.90234375 4.08984375 C15.43290654 4.06822935 16.96351139 4.04944463 18.49414062 4.03320312 C20.89236599 3.99443949 23.28467826 3.93873608 25.6809082 3.83227539 C38.94938025 3.28926701 38.94938025 3.28926701 43.08807373 6.20819092 C45.20734742 8.23834754 47.07696812 10.42241036 48.95939636 12.670578 C52.61192871 16.81490384 55.190582 17.93371708 60.890625 18.390625 C63.46914288 18.40371392 66.04863522 18.35616176 68.625 18.25 C69.96740996 18.23798811 71.3098804 18.23144794 72.65234375 18.23046875 C75.89794127 18.20711913 79.13219538 18.12940469 82.375 18 C82.375 19.65 82.375 21.3 82.375 23 C78.07008537 23.12418758 73.7661365 23.21461002 69.45996094 23.2746582 C67.99721093 23.29970529 66.53458488 23.33375392 65.07226562 23.37719727 C62.96192781 23.43829356 60.85325248 23.46630435 58.7421875 23.48828125 C57.47487793 23.51446533 56.20756836 23.54064941 54.90185547 23.56762695 C50.2300183 22.81572183 48.74397456 21.26749943 45.375 18 C44.446875 17.13375 43.51875 16.2675 42.5625 15.375 C40.375 13 40.375 13 39.375 10 C38.51503418 10.05329468 38.51503418 10.05329468 37.63769531 10.10766602 C16.57599264 11.37280439 16.57599264 11.37280439 6.375 10 C5.941875 10.928125 5.941875 10.928125 5.5 11.875 C4.375 14 4.375 14 2.375 16 C-0.4375 16.4375 -0.4375 16.4375 -3.625 16 C-6.94774404 13.54405875 -8.40118008 12.0743356 -9.25 8 C-8.11814245 2.56708374 -5.59993233 0 0 0 Z " fill="#F3F6FA" transform="translate(43.625,132)"/>
<path d="M0 0 C18.15 0 36.3 0 55 0 C55 2.97 55 5.94 55 9 C52.41554227 9.1081866 49.83562648 9.18737237 47.25 9.25 C46.52039063 9.28351563 45.79078125 9.31703125 45.0390625 9.3515625 C41.39524261 9.41781377 39.48218036 9.4070146 36.64453125 7.01171875 C36.10183594 6.34785156 35.55914062 5.68398437 35 5 C32.09302053 4.50368643 30.69798407 4.56676851 28.1875 6.125 C26.48079482 8.81979766 26.73927208 10.87126493 27 14 C27.33 14.99 27.66 15.98 28 17 C31.3 17 34.6 17 38 17 C37.34 17.99 36.68 18.98 36 20 C41.94 20.33 47.88 20.66 54 21 C54 21.33 54 21.66 54 22 C27.62714413 24.11026134 27.62714413 24.11026134 21.9609375 19.36328125 C20.46074432 17.77017288 19.16599504 16.11739167 17.85742188 14.36523438 C15.38808541 11.12593158 14.2139405 10.05732903 10.1953125 8.98046875 C6.7469674 8.77903077 3.44200255 8.73523057 0 9 C0 6.03 0 3.06 0 0 Z " fill="#467FC6" transform="translate(71,128)"/>
<path d="M0 0 C0.76183594 -0.01417969 1.52367187 -0.02835937 2.30859375 -0.04296875 C4.79597315 0.21137334 6.41058106 0.94732804 8.5625 2.1875 C8.2325 4.1675 7.9025 6.1475 7.5625 8.1875 C7.046875 8.0225 6.53125 7.8575 6 7.6875 C0.07002476 6.47109482 -4.31612881 6.88706079 -9.4375 10.1875 C-11.5524867 12.47873559 -13.1254068 14.37242164 -14.2421875 17.2890625 C-15.4375 19.1875 -15.4375 19.1875 -17.6796875 19.83984375 C-18.98292969 19.98099609 -18.98292969 19.98099609 -20.3125 20.125 C-23.78608116 20.71646115 -25.19779665 20.99456804 -28 23.25 C-29.40720374 26.12559025 -29.63156428 27.58057524 -29.8125 30.6875 C-30.07600158 34.76163985 -30.07600158 34.76163985 -31.75390625 36.73828125 C-33.28396516 37.92914638 -34.85977172 39.06055123 -36.4375 40.1875 C-39.17433502 44.29732918 -38.76979535 48.72466338 -38.8984375 53.5078125 C-39.4375 56.1875 -39.4375 56.1875 -41.4765625 57.5546875 C-42.12367188 57.76351562 -42.77078125 57.97234375 -43.4375 58.1875 C-43.4375 57.5275 -43.4375 56.8675 -43.4375 56.1875 C-44.0975 56.1875 -44.7575 56.1875 -45.4375 56.1875 C-46.08932859 47.70165749 -46.18111818 41.61984299 -40.9453125 34.6640625 C-39.4375 33.1875 -39.4375 33.1875 -37.4375 33.1875 C-37.355 31.99125 -37.2725 30.795 -37.1875 29.5625 C-36.45493548 23.87258103 -33.73930753 20.18513527 -29.5 16.4375 C-25.7485919 13.68136344 -23.10868009 12.1875 -18.4375 12.1875 C-18.07978516 11.05054687 -18.07978516 11.05054687 -17.71484375 9.890625 C-16.22696255 6.74195898 -14.92386897 5.76191742 -12 3.9375 C-11.21753906 3.43734375 -10.43507812 2.9371875 -9.62890625 2.421875 C-6.35369815 0.57701625 -3.70045376 0.03120113 0 0 Z " fill="#4FA3E3" transform="translate(178.4375,79.8125)"/>
<path d="M0 0 C2 1.0625 2 1.0625 3 3 C2.66666667 9.33333333 2.66666667 9.33333333 0 12 C0.08421769 16.46353765 0.53911867 18.46998647 3.5 21.875 C4.325 22.57625 5.15 23.2775 6 24 C6.33 24.33 6.66 24.66 7 25 C11.15767878 25.14336823 14.70866397 25.05253601 18.8125 24.3125 C22 24 22 24 23.9375 25.125 C25.36066991 27.63647631 25.42674516 29.15503228 25 32 C23.875 33.8125 23.875 33.8125 22 35 C18.9375 35.3125 18.9375 35.3125 16 35 C15.34 34.34 14.68 33.68 14 33 C11.34280163 32.31822002 11.34280163 32.31822002 8.375 31.875 C6.60125 31.58625 4.8275 31.2975 3 31 C2.34 34.63 1.68 38.26 1 42 C2.32 42.33 3.64 42.66 5 43 C5 44.32 5 45.64 5 47 C-1.40096618 46.63768116 -1.40096618 46.63768116 -3.9375 43.9375 C-5.300326 40.16968693 -5.75810553 36.95810887 -5 33 C-3 30 -3 30 -1 28 C-2.08044772 25.75599319 -3.16155673 23.77630606 -4.625 21.75 C-6.51972222 17.96055557 -6.21389987 15.20669746 -6 11 C-6.99 10.67 -7.98 10.34 -9 10 C-10.32296047 3.62573591 -10.32296047 3.62573591 -9 1.0625 C-5.90131981 -0.58367385 -3.43858351 -0.36841966 0 0 Z " fill="#4363AE" transform="translate(214,143)"/>
<path d="M0 0 C1.8125 1.1875 1.8125 1.1875 3 3 C3.375 6 3.375 6 3 9 C2.51660156 9.45761719 2.03320312 9.91523438 1.53515625 10.38671875 C-0.45749284 12.48077492 -0.54962883 13.97537496 -0.9375 16.8125 C-1.74160995 21.50657773 -3.06560433 24.28309882 -6 28 C-5.34 28.66 -4.68 29.32 -4 30 C-1.43893094 33.84160359 -1.25617259 36.50982235 -2 41 C-3.1875 43.9375 -3.1875 43.9375 -5 46 C-7.6875 46.8125 -7.6875 46.8125 -10 47 C-10.495 44.525 -10.495 44.525 -11 42 C-9.515 41.505 -9.515 41.505 -8 41 C-7.83322718 37.58343976 -7.83322718 37.58343976 -8 34 C-9.83737827 31.72783152 -9.83737827 31.72783152 -12.6015625 31.8046875 C-13.59929687 31.82789063 -14.59703125 31.85109375 -15.625 31.875 C-16.62789062 31.89304688 -17.63078125 31.91109375 -18.6640625 31.9296875 C-19.82035156 31.96449219 -19.82035156 31.96449219 -21 32 C-21 32.66 -21 33.32 -21 34 C-23.76250036 35.38125018 -25.94731099 35.19079306 -29 35 C-31 33 -31 33 -31.3125 29.5 C-31.209375 28.345 -31.10625 27.19 -31 26 C-27.10748944 23.40499296 -25.4869469 24.13409797 -21 25 C-20.319375 25.2475 -19.63875 25.495 -18.9375 25.75 C-15.81927833 26.15235118 -13.68659775 24.46010747 -11 23 C-10.34 23 -9.68 23 -9 23 C-7.00524516 18.88581814 -6.65641914 15.55244646 -7 11 C-7.66 10.34 -8.32 9.68 -9 9 C-9.375 5.5625 -9.375 5.5625 -9 2 C-6.18112246 -1.3408919 -4.01115641 -1.4399023 0 0 Z " fill="#4062B1" transform="translate(183,143)"/>
<path d="M0 0 C0.5053125 0.67160156 1.010625 1.34320313 1.53125 2.03515625 C5.00134095 4.79695332 7.60604464 4.20268977 11.92016602 4.046875 C24.78692801 3.58993411 24.78692801 3.58993411 29.02392578 6.28955078 C31.25975806 8.46253097 33.06194698 10.81031235 34.88964844 13.32861328 C37.4875318 16.77095317 38.48257871 17.8535999 42.82421875 19.08203125 C46.27723099 19.2847454 49.55745225 19.3106441 53 19 C53 20.32 53 21.64 53 23 C39.86277618 24.63185089 39.86277618 24.63185089 35.16259766 21.95263672 C31.569071 19.09479269 28.64809956 15.73651336 26 12 C26 11.34 26 10.68 26 10 C22.41548691 10.05189759 18.83337949 10.14697784 15.25 10.25 C13.72632813 10.27126953 13.72632813 10.27126953 12.171875 10.29296875 C6.39568683 10.32485071 6.39568683 10.32485071 1.515625 13.01171875 C1.01546875 13.66785156 0.5153125 14.32398437 0 15 C-3.5 15.5625 -3.5 15.5625 -7 15 C-9.96135546 12.41830549 -10.86756104 10.81118865 -11.5 6.9375 C-11 4 -11 4 -9.4375 1.625 C-6.06489221 -0.62340519 -3.97487617 -0.56783945 0 0 Z " fill="#65BEF3" transform="translate(17,104)"/>
<path d="M0 0 C0.95708359 0.00222061 1.91416718 0.00444122 2.9002533 0.00672913 C3.98129837 0.00680466 5.06234344 0.00688019 6.17614746 0.00695801 C7.94018166 0.01469994 7.94018166 0.01469994 9.73985291 0.02259827 C10.93702438 0.02401321 12.13419586 0.02542816 13.36764526 0.02688599 C17.20918732 0.03250472 21.05067208 0.04506041 24.89219666 0.05775452 C27.48920102 0.0627671 30.0862063 0.06733043 32.68321228 0.07142639 C39.06539344 0.08248024 45.44754096 0.0992366 51.82969666 0.12025452 C51.82969666 2.43025452 51.82969666 4.74025452 51.82969666 7.12025452 C33.67969666 7.12025452 15.52969666 7.12025452 -3.17030334 7.12025452 C-3.17030334 0.1756636 -3.17030334 0.1756636 0 0 Z " fill="#488ACF" transform="translate(74.17030334472656,114.87974548339844)"/>
<path d="M0 0 C12.20407944 8.23775362 17.01364687 24.07326229 20.37817383 37.68530273 C21.41479935 43.21112319 21.31647724 48.64775762 21.1875 54.25 C21.16719727 55.95736328 21.16719727 55.95736328 21.14648438 57.69921875 C21.11160054 60.46666987 21.06259317 63.23306105 21 66 C20.34 66 19.68 66 19 66 C19.02320313 65.31035156 19.04640625 64.62070313 19.0703125 63.91015625 C19.31820085 52.93662234 19.31820085 52.93662234 14.9375 43.1875 C12.82006198 39.70397294 12.73218043 38.11249 12.5625 34.125 C12.27366436 28.32662457 10.85048736 24.37828002 7 20 C6.34 19.67 5.68 19.34 5 19 C4.578125 17.21484375 4.578125 17.21484375 4.25 14.9375 C3.19831456 9.55838761 0.53558564 6.08037713 -3 2 C-2.01 1.34 -1.02 0.68 0 0 Z " fill="#E7F0F7" transform="translate(244,94)"/>
<path d="M0 0 C3.375 1 3.375 1 4.79418945 2.53051758 C6.89851151 4.48664336 8.20271736 4.42126488 11.04296875 4.51171875 C11.93564453 4.54716797 12.82832031 4.58261719 13.74804688 4.61914062 C14.67681641 4.64169922 15.60558594 4.66425781 16.5625 4.6875 C17.50287109 4.72166016 18.44324219 4.75582031 19.41210938 4.79101562 C21.73295393 4.87348218 24.05342148 4.94263403 26.375 5 C26.375 6.65 26.375 8.3 26.375 10 C19.775 10 13.175 10 6.375 10 C5.715 11.32 5.055 12.64 4.375 14 C2.375 16 2.375 16 -0.4375 16.4375 C-3.625 16 -3.625 16 -6.5 13.875 C-8.625 11 -8.625 11 -9.25 8 C-8.11814245 2.56708374 -5.59993233 0 0 0 Z " fill="#60A3DD" transform="translate(43.625,132)"/>
<path d="M0 0 C6.48292295 -0.3669579 6.48292295 -0.3669579 8.9375 1.375 C10 3 10 3 10 5 C23.86 5 37.72 5 52 5 C52 6.32 52 7.64 52 9 C38.14 9 24.28 9 10 9 C9.67 10.32 9.34 11.64 9 13 C5.51131349 15.32579101 4.10281481 15.41865457 0 15 C-2.375 13.5 -2.375 13.5 -4 12 C-3.625 9.5625 -3.625 9.5625 -3 7 C-2.34 6.67 -1.68 6.34 -1 6 C-0.67 6.99 -0.34 7.98 0 9 C1.65 9 3.3 9 5 9 C4.67 7.35 4.34 5.7 4 4 C3.01 3.67 2.02 3.34 1 3 C0.67 2.01 0.34 1.02 0 0 Z " fill="#3E61B1" transform="translate(18,176)"/>
<path d="M0 0 C0.33 0 0.66 0 1 0 C1 2.97 1 5.94 1 9 C1.99 9.33 2.98 9.66 4 10 C3.34 11.32 2.68 12.64 2 14 C-3.94 14 -9.88 14 -16 14 C-16.33 14.99 -16.66 15.98 -17 17 C-19.84083641 18.42041821 -21.85477278 18.31452272 -25 18 C-27.375 16.375 -27.375 16.375 -29 14 C-29.60975382 10.34147708 -29.44543026 8.69487121 -27.4375 5.5625 C-25 4 -25 4 -21.375 4 C-20.26125 4.33 -19.1475 4.66 -18 5 C-17.34 6.32 -16.68 7.64 -16 9 C-10.72 9 -5.44 9 0 9 C0 6.03 0 3.06 0 0 Z " fill="#EDF2F7" transform="translate(126,128)"/>
<path d="M0 0 C0.99 0.66 1.98 1.32 3 2 C3 2.66 3 3.32 3 4 C3.79664062 3.9071875 4.59328125 3.814375 5.4140625 3.71875 C13.96566422 3.13615913 13.96566422 3.13615913 17.1328125 5.78125 C18.60204317 7.79700609 19.86933155 9.77833569 21 12 C19.68 12.99 18.36 13.98 17 15 C15.62437146 13.71034824 14.29233607 12.37310707 13 11 C13 10.34 13 9.68 13 9 C6.85116943 9.05392994 6.85116943 9.05392994 1.875 12.125 C1.25625 12.74375 0.6375 13.3625 0 14 C-3.46954545 13.93913078 -5.91947278 13.6274029 -8.9375 11.875 C-10.64550843 8.86086748 -10.36204814 6.37911601 -10 3 C-7.77361 -1.05988764 -4.20558658 -0.3754988 0 0 Z " fill="#EBF4FA" transform="translate(88,90)"/>
<path d="M0 0 C0.7425 0.66 1.485 1.32 2.25 2 C4.97242945 4.39211447 4.97242945 4.39211447 9 4 C9.14695313 5.10408203 9.14695313 5.10408203 9.296875 6.23046875 C10.40873711 13.91852192 10.40873711 13.91852192 15 20 C17.93371589 21.72901979 20.37082951 22.3268379 23.75 22.625 C24.54921875 22.69976562 25.3484375 22.77453125 26.171875 22.8515625 C26.77515625 22.90054688 27.3784375 22.94953125 28 23 C27.38722388 25.96175123 26.74627478 27.38058783 25 30 C17.69793633 29.13213178 12.11306808 27.48886151 7 22 C2.29377981 15.26998537 0.92525843 8.03731949 0 0 Z " fill="#425EAC" transform="translate(136,169)"/>
<path d="M0 0 C2 1.375 2 1.375 3 3 C3 3.66 3 4.32 3 5 C6.63 5 10.26 5 14 5 C14 6.32 14 7.64 14 9 C10.37 9 6.74 9 3 9 C2.34 10.32 1.68 11.64 1 13 C-2 15 -2 15 -5.5 14.875 C-9 14 -9 14 -10.9375 12.3125 C-12.33817538 9.26397123 -12.4842732 7.32073048 -12 4 C-8.87063045 -0.95483512 -5.3663324 -0.59625916 0 0 Z " fill="#3D77C5" transform="translate(56,152)"/>
<path d="M0 0 C3.375 1 3.375 1 4.60546875 2.51953125 C7.38948522 4.84876357 10.58201343 4.57375861 14.0625 4.6875 C15.1153418 4.73874023 15.1153418 4.73874023 16.18945312 4.79101562 C17.91741387 4.87329947 19.64618072 4.9383324 21.375 5 C21.375 5.33 21.375 5.66 21.375 6 C16.755 6 12.135 6 7.375 6 C7.705 7.32 8.035 8.64 8.375 10 C7.715 10 7.055 10 6.375 10 C6.08625 10.639375 5.7975 11.27875 5.5 11.9375 C4.375 14 4.375 14 2.375 15 C-1.49924565 15.35872645 -3.77433906 15.56710729 -7.0625 13.375 C-9.12291771 10.24316508 -9.3017545 8.68455227 -8.625 5 C-5.91953265 1.14675862 -4.77773264 0 0 0 Z " fill="#58C0FB" transform="translate(27.625,81)"/>
<path d="M0 0 C1.98 0 3.96 0 6 0 C6.28875 0.969375 6.5775 1.93875 6.875 2.9375 C9.23644136 8.61426545 14.37748274 12.17536565 19 16 C18.67 17.32 18.34 18.64 18 20 C14.7 19.67 11.4 19.34 8 19 C7.34 19.99 6.68 20.98 6 22 C4.68 21.34 3.36 20.68 2 20 C2.39803561 17.11424181 2.79009069 16.17810487 5.0625 14.25 C6.0215625 13.63125 6.0215625 13.63125 7 13 C4.42786866 11.38050989 3.32330841 10.95591249 0.25 11.375 C-0.4925 11.58125 -1.235 11.7875 -2 12 C-1.855625 11.319375 -1.71125 10.63875 -1.5625 9.9375 C-0.93054091 6.63726918 -0.45686059 3.32855574 0 0 Z " fill="#4994D6" transform="translate(226,115)"/>
<path d="M0 0 C2.475 0.495 2.475 0.495 5 1 C5.33 4.63 5.66 8.26 6 12 C3.03 11.505 3.03 11.505 0 11 C0 12.32 0 13.64 0 15 C0.66 15.66 1.32 16.32 2 17 C1.625 19.125 1.625 19.125 1 21 C-1.86724686 20.42655063 -2.8614515 20.1385485 -5 18 C-6.89667109 18.28552357 -6.89667109 18.28552357 -9 19 C-10.66519519 19.34060811 -12.33157466 19.67558396 -14 20 C-14.33 18.68 -14.66 17.36 -15 16 C-14.39671875 15.55269531 -13.7934375 15.10539063 -13.171875 14.64453125 C-7.56915091 10.40634158 -2.91153801 6.55096053 0 0 Z " fill="#4792D9" transform="translate(160,115)"/>
<path d="M0 0 C1.8125 1.1875 1.8125 1.1875 3 3 C3.375 6 3.375 6 3 9 C2 10 1 11 0 12 C-0.73041853 15.61023099 -0.73041853 15.61023099 -1 19 C-1.66 18.01 -2.32 17.02 -3 16 C-3.6496875 17.4540625 -3.6496875 17.4540625 -4.3125 18.9375 C-6 22 -6 22 -9 23 C-8.505 21.9790625 -8.505 21.9790625 -8 20.9375 C-6.80995439 17.44174101 -6.72297197 14.67062141 -7 11 C-7.66 10.34 -8.32 9.68 -9 9 C-9.375 5.5625 -9.375 5.5625 -9 2 C-6.18112246 -1.3408919 -4.01115641 -1.4399023 0 0 Z M-11 23 C-10.34 23.33 -9.68 23.66 -9 24 C-9.99 24 -10.98 24 -12 24 C-11.67 23.67 -11.34 23.34 -11 23 Z " fill="#477AC1" transform="translate(183,143)"/>
<path d="M0 0 C2.6875 -0.37109375 2.6875 -0.37109375 6 0 C7.88635683 1.95414778 9.40236482 3.77539775 11 5.9375 C14.05752265 9.72015904 16.01443989 11.73725108 20.82421875 13.01953125 C24.26464123 13.22477384 27.56506791 13.26075397 31 13 C31 14.32 31 15.64 31 17 C17.84213033 18.63441543 17.84213033 18.63441543 13.17871094 15.95263672 C9.14588559 12.70853208 5.32345658 8.64691315 3 4 C-3.27 3.67 -9.54 3.34 -16 3 C-16 2.67 -16 2.34 -16 2 C-10.72 2 -5.44 2 0 2 C0 1.34 0 0.68 0 0 Z " fill="#48B0F0" transform="translate(39,110)"/>
<path d="M0 0 C4.29 0 8.58 0 13 0 C14 5 14 5 12.93603516 6.8527832 C12.39253418 7.41312256 11.8490332 7.97346191 11.2890625 8.55078125 C10.70382813 9.16630859 10.11859375 9.78183594 9.515625 10.41601562 C8.89171875 11.04185547 8.2678125 11.66769531 7.625 12.3125 C7.00882812 12.95767578 6.39265625 13.60285156 5.7578125 14.26757812 C2.58554629 17.55463028 2.58554629 17.55463028 1 19 C0.67 19 0.34 19 0 19 C0 12.73 0 6.46 0 0 Z " fill="#416BB8" transform="translate(71,162)"/>
<path d="M0 0 C3.99912053 0.44434673 6.65620733 1.82653476 10 4 C10.845625 4.4125 11.69125 4.825 12.5625 5.25 C15.04221412 7.03030757 15.69293222 8.00356167 17.0625 10.625 C18.60355137 14.10286019 18.60355137 14.10286019 21.25 14.9375 C21.8275 14.958125 22.405 14.97875 23 15 C23 16.65 23 18.3 23 20 C17.65420561 20.48598131 17.65420561 20.48598131 14.8125 18.375 C13 16 13 16 11.625 12.8125 C10.26733812 9.72394152 10.26733812 9.72394152 7.125 9.125 C4.40896885 9.01635875 1.71712935 8.92008443 -1 9 C-1.09765625 2.84765625 -1.09765625 2.84765625 -1 1 C-0.67 0.67 -0.34 0.34 0 0 Z " fill="#478FD4" transform="translate(209,127)"/>
<path d="M0 0 C1.65 0 3.3 0 5 0 C5 2.97 5 5.94 5 9 C3.7625 8.9175 2.525 8.835 1.25 8.75 C-1.79254763 8.7607132 -2.71420007 8.79358894 -5.25 10.625 C-7.26434671 13.35875625 -9.160578 16.14572449 -11 19 C-12 20 -12 20 -15.5625 20.0625 C-16.696875 20.041875 -17.83125 20.02125 -19 20 C-19 18.68 -19 17.36 -19 16 C-18.40058594 15.92523438 -17.80117187 15.85046875 -17.18359375 15.7734375 C-14.23146396 14.72778151 -13.62371367 13.29765941 -12.0625 10.625 C-9.78842403 7.01289448 -8.07955071 4.65387191 -4 3 C-3.01 3 -2.02 3 -1 3 C-0.67 2.01 -0.34 1.02 0 0 Z " fill="#418CD6" transform="translate(177,127)"/>
<path d="M0 0 C0.33 0 0.66 0 1 0 C1 2.64 1 5.28 1 8 C19.15 8 37.3 8 56 8 C56 8.33 56 8.66 56 9 C37.85 9 19.7 9 1 9 C1 10.32 1 11.64 1 13 C19.15 13 37.3 13 56 13 C56 13.33 56 13.66 56 14 C37.85 14 19.7 14 1 14 C1 16.97 1 19.94 1 23 C0.67 23 0.34 23 0 23 C0 20.03 0 17.06 0 14 C-5.28 14 -10.56 14 -16 14 C-16 13.67 -16 13.34 -16 13 C-10.72 13 -5.44 13 0 13 C0 11.68 0 10.36 0 9 C-4.62 9 -9.24 9 -14 9 C-14 8.67 -14 8.34 -14 8 C-9.38 8 -4.76 8 0 8 C0 5.36 0 2.72 0 0 Z " fill="#AAC8E5" transform="translate(70,114)"/>
<path d="M0 0 C2 1.0625 2 1.0625 3 3 C2.7815534 9.11650485 2.7815534 9.11650485 0.5625 11.625 C0.046875 12.07875 -0.46875 12.5325 -1 13 C-1.33 13.86625 -1.66 14.7325 -2 15.625 C-2.33 16.40875 -2.66 17.1925 -3 18 C-3.99 18.33 -4.98 18.66 -6 19 C-6 16.36 -6 13.72 -6 11 C-6.99 10.67 -7.98 10.34 -9 10 C-10.32296047 3.62573591 -10.32296047 3.62573591 -9 1.0625 C-5.90131981 -0.58367385 -3.43858351 -0.36841966 0 0 Z " fill="#4B7BBE" transform="translate(214,143)"/>
<path d="M0 0 C1.65 0 3.3 0 5 0 C5 3.96 5 7.92 5 12 C3.35 12 1.7 12 0 12 C0 11.01 0 10.02 0 9 C-0.54140625 9.32742187 -1.0828125 9.65484375 -1.640625 9.9921875 C-4.50719067 11.21664767 -6.6452987 11.19892146 -9.75 11.125 C-10.73484375 11.10695312 -11.7196875 11.08890625 -12.734375 11.0703125 C-13.85585937 11.03550781 -13.85585937 11.03550781 -15 11 C-15 9.35 -15 7.7 -15 6 C-14.09507812 5.92652344 -14.09507812 5.92652344 -13.171875 5.8515625 C-12.37265625 5.77679688 -11.5734375 5.70203125 -10.75 5.625 C-9.96109375 5.55539063 -9.1721875 5.48578125 -8.359375 5.4140625 C-5.85277404 4.97416233 -4.15177354 4.35175517 -2 3 C-1.34 2.01 -0.68 1.02 0 0 Z " fill="#4F7ABF" transform="translate(241,148)"/>
<path d="M0 0 C5 0 5 0 7.75 2.4375 C8.4925 3.283125 9.235 4.12875 10 5 C11.58272601 6.58272601 13.38034003 6.34735747 15.5625 6.5625 C16.38878906 6.64628906 17.21507812 6.73007813 18.06640625 6.81640625 C18.70449219 6.87699219 19.34257812 6.93757812 20 7 C20 8.65 20 10.3 20 12 C13.86946489 12.32712342 9.37330889 12.39366878 4 9 C4 9.99 4 10.98 4 12 C2.68 12 1.36 12 0 12 C0 8.04 0 4.08 0 0 Z " fill="#3F73BE" transform="translate(145,148)"/>
<path d="M0 0 C0.99 0.66 1.98 1.32 3 2 C3.1875 5.125 3.1875 5.125 3 8 C2.01 8.495 2.01 8.495 1 9 C0.34 7.68 -0.32 6.36 -1 5 C-2.65 5.33 -4.3 5.66 -6 6 C-5.96877057 7.96756452 -5.96877057 7.96756452 -5 10 C-2.00384054 11.3045656 -2.00384054 11.3045656 1 12 C0.67 12.99 0.34 13.98 0 15 C-3.25 15.3125 -3.25 15.3125 -7 15 C-9.96135546 12.41830549 -10.86756104 10.81118865 -11.5 6.9375 C-11 4 -11 4 -9.4375 1.625 C-6.12030578 -0.58646281 -3.91054241 -0.42660463 0 0 Z " fill="#4FB8F8" transform="translate(17,104)"/>
<path d="M0 0 C3.3125 1.0625 3.3125 1.0625 4.75 3.125 C5.0284375 4.0840625 5.0284375 4.0840625 5.3125 5.0625 C2.33008453 5.83571882 -0.66330475 6.47446203 -3.6875 7.0625 C-3.3575 8.3825 -3.0275 9.7025 -2.6875 11.0625 C0.59946233 11.86203138 2.02273192 12.15908936 5.3125 11.0625 C3.4375 14.9375 3.4375 14.9375 2.3125 16.0625 C-1.71949561 16.61231758 -3.24282291 16.39117437 -6.5625 13.9375 C-8.6875 11.0625 -8.6875 11.0625 -9.3125 8.0625 C-8.17036062 2.58023098 -5.6202423 0.09525834 0 0 Z " fill="#519CDD" transform="translate(43.6875,131.9375)"/>
<path d="M0 0 C0.66 0.33 1.32 0.66 2 1 C1.39671875 1.4846875 0.7934375 1.969375 0.171875 2.46875 C-6.2064361 7.81830125 -10.31063036 12.75644875 -12 21 C-12.11521536 23.23017122 -12.17637652 25.46333129 -12.20532227 27.69628906 C-12.21522186 28.36011597 -12.22512146 29.02394287 -12.23532104 29.70788574 C-12.2668126 31.89376302 -12.29164437 34.079662 -12.31640625 36.265625 C-12.33698645 37.78449049 -12.35798321 39.30335038 -12.37937927 40.82220459 C-12.43448984 44.81371525 -12.48394753 48.80527665 -12.53222656 52.796875 C-12.58252217 56.8724416 -12.63816611 60.9479348 -12.69335938 65.0234375 C-12.80080616 73.01556288 -12.90228087 81.00774979 -13 89 C-13.66 88.67 -14.32 88.34 -15 88 C-14.98507291 78.91514909 -14.94324705 69.83092236 -14.86790943 60.74637032 C-14.833747 56.52713156 -14.80854632 52.30825075 -14.80444336 48.08886719 C-14.80013713 44.01012368 -14.77148441 39.93218616 -14.72656822 35.85369492 C-14.7136669 34.30458156 -14.7092592 32.75537138 -14.71384621 31.20621109 C-14.73613554 21.38482088 -14.34065968 12.49644089 -7.09846497 5.04299927 C-4.85211827 3.02363828 -2.7035915 1.35179575 0 0 Z " fill="#CEE8F2" transform="translate(84,19)"/>
<path d="M0 0 C2.875 0.3125 2.875 0.3125 6 1 C8.14811394 4.22217092 8.63793043 6.53699045 9.33984375 10.2578125 C9.55769531 10.83273438 9.77554688 11.40765625 10 12 C10.99 12.33 11.98 12.66 13 13 C13 15.31 13 17.62 13 20 C8.55642615 18.64224132 6.51408707 16.90116959 4 13 C3.649375 11.7625 3.29875 10.525 2.9375 9.25 C2.628125 8.1775 2.31875 7.105 2 6 C1.01 5.67 0.02 5.34 -1 5 C-0.67 3.35 -0.34 1.7 0 0 Z " fill="#42A5E7" transform="translate(173,102)"/>
<path d="M0 0 C0.99 0 1.98 0 3 0 C4.66666667 1.66666667 6.33333333 3.33333333 8 5 C12.63674637 7.78204782 17.76585663 7.18294093 23 7 C22.38722388 9.96175123 21.74627478 11.38058783 20 14 C12.61053929 13.12174442 7.41415253 11.2151028 2 6 C0 3 0 3 0 0 Z " fill="#3B52A4" transform="translate(141,185)"/>
<path d="M0 0 C0 1.65 0 3.3 0 5 C-0.99 5.33 -1.98 5.66 -3 6 C-3.84179 7.97106127 -3.84179 7.97106127 -4.375 10.3125 C-5.66622458 14.58033703 -7.01457381 16.70837994 -11 19 C-11.99 19 -12.98 19 -14 19 C-14 17.02 -14 15.04 -14 13 C-13.36191406 12.7628125 -12.72382813 12.525625 -12.06640625 12.28125 C-9.81846772 11.18852331 -9.81846772 11.18852331 -9.27734375 8.90625 C-9.16519531 8.1121875 -9.05304688 7.318125 -8.9375 6.5 C-8.58984375 4.09375 -8.58984375 4.09375 -8 2 C-4.77208445 -0.1519437 -3.71599191 -0.20086443 0 0 Z " fill="#50AEE9" transform="translate(218,102)"/>
<path d="M0 0 C12.78026906 -1.53363229 12.78026906 -1.53363229 18.22265625 2.2265625 C20.66054283 4.71706534 22.89396892 7.22499434 25 10 C24.01 10.99 23.02 11.98 22 13 C20.87411986 12.04270084 19.7493285 11.08412105 18.625 10.125 C17.99851562 9.59132813 17.37203125 9.05765625 16.7265625 8.5078125 C15.44163349 7.38567993 14.20628025 6.20628025 13 5 C10.10776497 4.53603307 10.10776497 4.53603307 6.875 4.375 C5.23144531 4.26285156 5.23144531 4.26285156 3.5546875 4.1484375 C2.71164063 4.09945312 1.86859375 4.05046875 1 4 C0.67 2.68 0.34 1.36 0 0 Z " fill="#57BDF9" transform="translate(35,87)"/>
<path d="M0 0 C4.875 3.75 4.875 3.75 6 6 C6.27756835 10.2329173 6.40260056 13.00409335 4.8125 16.9375 C2.61989153 19.43253722 1.25677898 19.73593684 -2 20 C-2.33 18.35 -2.66 16.7 -3 15 C-2.01 14.67 -1.02 14.34 0 14 C0.05416188 12.39620659 0.09286638 10.79188594 0.125 9.1875 C0.14820313 8.29417969 0.17140625 7.40085938 0.1953125 6.48046875 C0.18285827 3.74597286 0.18285827 3.74597286 -2 1 C-1.34 0.67 -0.68 0.34 0 0 Z " fill="#3A56A7" transform="translate(175,170)"/>
<path d="M0 0 C1.98 0 3.96 0 6 0 C6.71614583 1.72526042 7.43229167 3.45052083 8.1484375 5.17578125 C9.06806692 7.26533932 9.06806692 7.26533932 11 10 C10.01 10 9.02 10 8 10 C7.030625 10.33 6.06125 10.66 5.0625 11 C2 12 2 12 -2 12 C-1.855625 11.319375 -1.71125 10.63875 -1.5625 9.9375 C-0.93054091 6.63726918 -0.45686059 3.32855574 0 0 Z " fill="#469CDE" transform="translate(226,115)"/>
<path d="M0 0 C0.556875 0.350625 1.11375 0.70125 1.6875 1.0625 C4.53886783 2.21845993 6.08517222 1.80967438 9 1 C9.8125 3.1875 9.8125 3.1875 10 6 C7.5625 8.8125 7.5625 8.8125 5 11 C6.32 11.33 7.64 11.66 9 12 C2.59296098 11.51644989 2.59296098 11.51644989 0.0625 9.3125 C-1.28405972 6.38175237 -1.28350676 4.189451 -1 1 C-0.67 0.67 -0.34 0.34 0 0 Z " fill="#4C83CA" transform="translate(45,155)"/>
<path d="M0 0 C0.66 0.33 1.32 0.66 2 1 C2 1.66 2 2.32 2 3 C3.32 3.33 4.64 3.66 6 4 C6.38218767 5.65614657 6.71395102 7.32457024 7 9 C6 10 6 10 3.5625 10.25 C2.716875 10.1675 1.87125 10.085 1 10 C0.34 9.01 -0.32 8.02 -1 7 C-1.99 7.99 -2.98 8.98 -4 10 C-4.25 7.25 -4.25 7.25 -4 4 C-2 1.625 -2 1.625 0 0 Z " fill="#4E6FB8" transform="translate(17,176)"/>
<path d="M0 0 C0.33 0 0.66 0 1 0 C1 4.29 1 8.58 1 13 C5.62 13 10.24 13 15 13 C15 13.33 15 13.66 15 14 C10.38 14 5.76 14 1 14 C1 15.32 1 16.64 1 18 C4.96 18 8.92 18 13 18 C13 18.33 13 18.66 13 19 C5.08 19 -2.84 19 -11 19 C-11 18.67 -11 18.34 -11 18 C-7.37 18 -3.74 18 0 18 C0 16.68 0 15.36 0 14 C-3.63 14 -7.26 14 -11 14 C-11 13.67 -11 13.34 -11 13 C-7.37 13 -3.74 13 0 13 C0 8.71 0 4.42 0 0 Z " fill="#ABC0DF" transform="translate(70,143)"/>
<path d="M0 0 C1.09570312 0.00902344 2.19140625 0.01804688 3.3203125 0.02734375 C4.16335937 0.03894531 5.00640625 0.05054688 5.875 0.0625 C5.875 1.7125 5.875 3.3625 5.875 5.0625 C4.29205218 5.11687607 2.70855744 5.15546271 1.125 5.1875 C0.24328125 5.21070313 -0.6384375 5.23390625 -1.546875 5.2578125 C-4.2385858 5.05389502 -5.82404974 4.42801721 -8.125 3.0625 C-8.125 2.4025 -8.125 1.7425 -8.125 1.0625 C-5.36047967 -0.31976016 -3.0788637 -0.03275387 0 0 Z " fill="#3C6EB8" transform="translate(159.125,154.9375)"/>
<path d="M0 0 C4.95 0.33 9.9 0.66 15 1 C15 2.32 15 3.64 15 5 C9.72 5 4.44 5 -1 5 C-0.34 4.67 0.32 4.34 1 4 C0.67 2.68 0.34 1.36 0 0 Z " fill="#52A3E4" transform="translate(55,122)"/>
<path d="M0 0 C0.66 0 1.32 0 2 0 C2.226875 0.804375 2.45375 1.60875 2.6875 2.4375 C3.74514268 5.22204855 3.74514268 5.22204855 6.4375 5.875 C9.12077174 6.16089524 9.12077174 6.16089524 12 5 C10.125 8.875 10.125 8.875 9 10 C5.75320705 10.28860382 3.59272742 10.28076562 0.625 8.875 C-1 7 -1 7 -1.3125 3.875 C-1 1 -1 1 0 0 Z " fill="#4996D9" transform="translate(37,138)"/>
<path d="M0 0 C1.70840281 1.63412443 2.93453047 2.86906094 4 5 C6.02463255 5.65213292 6.02463255 5.65213292 8 6 C8 7.65 8 9.3 8 11 C5.25 11.25 5.25 11.25 2 11 C-0.375 9 -0.375 9 -2 7 C-1.34 4.69 -0.68 2.38 0 0 Z " fill="#5592CD" transform="translate(224,136)"/>
<path d="M0 0 C2 1.375 2 1.375 3 3 C3 3.66 3 4.32 3 5 C1 6.625 1 6.625 -1 8 C-1.33 7.01 -1.66 6.02 -2 5 C-3.98 5.33 -5.96 5.66 -8 6 C-8.99 4.68 -9.98 3.36 -11 2 C-7.21239377 -0.52507082 -4.44608422 -0.62059926 0 0 Z " fill="#5386CB" transform="translate(56,152)"/>
<path d="M0 0 C2.875 0.3125 2.875 0.3125 6 1 C8 4 8 4 8 8 C6.68 8 5.36 8 4 8 C3.67 8.66 3.34 9.32 3 10 C2.896875 9.360625 2.79375 8.72125 2.6875 8.0625 C2.460625 7.381875 2.23375 6.70125 2 6 C1.01 5.67 0.02 5.34 -1 5 C-0.67 3.35 -0.34 1.7 0 0 Z " fill="#5CB7EE" transform="translate(173,102)"/>
<path d="M0 0 C2.875 -0.1875 2.875 -0.1875 6 0 C8 3 8 3 7.625 5.6875 C7.315625 6.8321875 7.315625 6.8321875 7 8 C6.54109375 7.35546875 6.0821875 6.7109375 5.609375 6.046875 C1.72621972 3.00080709 -1.94176379 3.32812496 -6.75 3.25 C-7.63816406 3.22035156 -8.52632812 3.19070312 -9.44140625 3.16015625 C-11.62769449 3.08963082 -13.81292768 3.03685363 -16 3 C-16 2.67 -16 2.34 -16 2 C-10.72 2 -5.44 2 0 2 C0 1.34 0 0.68 0 0 Z " fill="#4EB5F3" transform="translate(39,110)"/>
<path d="M0 0 C0.66 0.33 1.32 0.66 2 1 C1.39671875 1.4846875 0.7934375 1.969375 0.171875 2.46875 C-5.09989062 6.89023084 -8.4230338 10.64437351 -11 17 C-11.65729376 18.33797875 -12.32161223 19.6725919 -13 21 C-12.69563298 14.15174194 -11.67737141 9.47046048 -6.47265625 4.55859375 C-4.41874653 2.79594751 -2.42712672 1.21356336 0 0 Z " fill="#5CC5F5" transform="translate(84,19)"/>
<path d="M0 0 C1.11375 0.3403125 1.11375 0.3403125 2.25 0.6875 C1.26 1.0175 0.27 1.3475 -0.75 1.6875 C0.24 3.1725 0.24 3.1725 1.25 4.6875 C0.875 6.875 0.875 6.875 0.25 8.6875 C-1.07 8.3575 -2.39 8.0275 -3.75 7.6875 C-3.87375 7.048125 -3.9975 6.40875 -4.125 5.75 C-4.434375 4.7290625 -4.434375 4.7290625 -4.75 3.6875 C-5.41 3.3575 -6.07 3.0275 -6.75 2.6875 C-4.29511132 0.41445492 -3.41240272 -0.38777304 0 0 Z " fill="#8DB0DA" transform="translate(180.75,142.3125)"/>
<path d="M0 0 C1.65 0 3.3 0 5 0 C5 2.97 5 5.94 5 9 C2.69 8.67 0.38 8.34 -2 8 C-0.68 6.35 0.64 4.7 2 3 C1.01 3.495 1.01 3.495 0 4 C-2.125 3.5625 -2.125 3.5625 -4 3 C-3.01 3 -2.02 3 -1 3 C-0.67 2.01 -0.34 1.02 0 0 Z " fill="#4998DB" transform="translate(177,127)"/>
<path d="M0 0 C1.65 0.33 3.3 0.66 5 1 C5 3.31 5 5.62 5 8 C2.36 7.34 -0.28 6.68 -3 6 C-2.01 4.02 -1.02 2.04 0 0 Z " fill="#60ADE7" transform="translate(160,115)"/>
<path d="M0 0 C4.62 0 9.24 0 14 0 C13.67 0.99 13.34 1.98 13 3 C7.06 3.495 7.06 3.495 1 4 C0.67 2.68 0.34 1.36 0 0 Z " fill="#4BB8FD" transform="translate(35,87)"/>
<path d="M0 0 C1.67542976 0.28604898 3.34385343 0.61781233 5 1 C5 2.65 5 4.3 5 6 C0.25 7.125 0.25 7.125 -2 6 C-1.125 1.125 -1.125 1.125 0 0 Z " fill="#E6F6FD" transform="translate(25,85)"/>
<path d="M0 0 C0.2475 0.53625 0.495 1.0725 0.75 1.625 C2.74875251 5.42262977 4.95946005 8.95946005 8 12 C7.01 12.495 7.01 12.495 6 13 C4.02 11.68 2.04 10.36 0 9 C-0.99 9.495 -0.99 9.495 -2 10 C-2.625 8.125 -2.625 8.125 -3 6 C-2.34 5.34 -1.68 4.68 -1 4 C-0.3574765 1.93125966 -0.3574765 1.93125966 0 0 Z " fill="#436DB4" transform="translate(212,156)"/>
<path d="M0 0 C1.67542976 0.28604898 3.34385343 0.61781233 5 1 C4.67 2.65 4.34 4.3 4 6 C2.125 6.625 2.125 6.625 0 7 C-0.66 6.34 -1.32 5.68 -2 5 C-1.46428571 1.46428571 -1.46428571 1.46428571 0 0 Z " fill="#EDF4FB" transform="translate(41,137)"/>
<path d="M0 0 C1.67542976 0.28604898 3.34385343 0.61781233 5 1 C4.67 2.65 4.34 4.3 4 6 C2.125 6.625 2.125 6.625 0 7 C-0.66 6.34 -1.32 5.68 -2 5 C-1.46428571 1.46428571 -1.46428571 1.46428571 0 0 Z " fill="#E6F6FD" transform="translate(12,108)"/>
<path d="M0 0 C0.33 1.32 0.66 2.64 1 4 C1.99 4 2.98 4 4 4 C4.33 3.01 4.66 2.02 5 1 C6.9375 1.3125 6.9375 1.3125 9 2 C9.33 2.99 9.66 3.98 10 5 C9.67 5.33 9.34 5.66 9 6 C7.7934375 5.9690625 7.7934375 5.9690625 6.5625 5.9375 C3.83081897 5.70941092 3.83081897 5.70941092 2 8 C-0.1519437 4.77208445 -0.20086443 3.71599191 0 0 Z " fill="#93B3DB" transform="translate(204,146)"/>
<path d="M0 0 C0.78375 0.04125 1.5675 0.0825 2.375 0.125 C2.705 1.445 3.035 2.765 3.375 4.125 C2.735625 4.24875 2.09625 4.3725 1.4375 4.5 C0.4165625 4.809375 0.4165625 4.809375 -0.625 5.125 C-0.955 5.785 -1.285 6.445 -1.625 7.125 C-2.615 7.125 -3.605 7.125 -4.625 7.125 C-4.75 4.75 -4.75 4.75 -4.625 2.125 C-2.625 0.125 -2.625 0.125 0 0 Z " fill="#427AC1" transform="translate(209.625,142.875)"/>
<path d="M0 0 C2.625 0.375 2.625 0.375 5 1 C4.67 2.65 4.34 4.3 4 6 C2.35 6 0.7 6 -1 6 C-1.625 4.125 -1.625 4.125 -2 2 C-1.34 1.34 -0.68 0.68 0 0 Z " fill="#ECF1F7" transform="translate(50,156)"/>
<path d="M0 0 C3.96 0 7.92 0 12 0 C12 0.99 12 1.98 12 3 C8.04 3 4.08 3 0 3 C0 2.01 0 1.02 0 0 Z " fill="#4697E0" transform="translate(58,138)"/>
<path d="M0 0 C1.67542976 0.28604898 3.34385343 0.61781233 5 1 C4.67 2.65 4.34 4.3 4 6 C2.35 6 0.7 6 -1 6 C-1.042721 4.33388095 -1.04063832 2.66617115 -1 1 C-0.67 0.67 -0.34 0.34 0 0 Z " fill="#F4F6FA" transform="translate(19,180)"/>
<path d="M0 0 C2.64 0.99 5.28 1.98 8 3 C7.67 3.99 7.34 4.98 7 6 C4.69 6 2.38 6 0 6 C0 4.02 0 2.04 0 0 Z " fill="#51B9FA" transform="translate(10,113)"/>
<path d="M0 0 C0.66 0.33 1.32 0.66 2 1 C1.34 2.32 0.68 3.64 0 5 C-2.31 5 -4.62 5 -7 5 C-7 3.68 -7 2.36 -7 1 C-5.5459375 1.0309375 -5.5459375 1.0309375 -4.0625 1.0625 C-1.12534105 1.35618499 -1.12534105 1.35618499 0 0 Z " fill="#4687CE" transform="translate(165,142)"/>
<path d="M0 0 C2.475 0.99 2.475 0.99 5 2 C5 3.32 5 4.64 5 6 C2.69 5.67 0.38 5.34 -2 5 C-1.34 3.35 -0.68 1.7 0 0 Z " fill="#3F57A8" transform="translate(214,184)"/>
<path d="M0 0 C2.2109885 0.42793326 3.98119242 0.99059621 6 2 C6 4.31 6 6.62 6 9 C5.67 8.34 5.34 7.68 5 7 C4.01 6.67 3.02 6.34 2 6 C0.3125 3.4375 0.3125 3.4375 -1 1 C-0.67 0.67 -0.34 0.34 0 0 Z " fill="#42A3E9" transform="translate(66,107)"/>
<path d="M0 0 C2.31 0 4.62 0 7 0 C7 1.65 7 3.3 7 5 C3.7 5 0.4 5 -3 5 C-3 4.67 -3 4.34 -3 4 C-1.02 4 0.96 4 3 4 C3 3.01 3 2.02 3 1 C2.01 0.67 1.02 0.34 0 0 Z " fill="#5D85C2" transform="translate(158,155)"/>
<path d="M0 0 C1.65 0.33 3.3 0.66 5 1 C5.33 2.32 5.66 3.64 6 5 C5.071875 4.835 4.14375 4.67 3.1875 4.5 C0.04378647 3.92251612 0.04378647 3.92251612 -3 4 C-2.01 2.68 -1.02 1.36 0 0 Z " fill="#51A0DF" transform="translate(160,122)"/>
<path d="M0 0 C0.66 0.33 1.32 0.66 2 1 C-0.10618315 3.94865641 -2.39391727 6.4837822 -5 9 C-5.99 8.67 -6.98 8.34 -8 8 C-8.6875 5.9375 -8.6875 5.9375 -9 4 C-8.01 4.495 -8.01 4.495 -7 5 C-7 5.66 -7 6.32 -7 7 C-6.21625 6.21625 -5.4325 5.4325 -4.625 4.625 C-3.08333333 3.08333333 -1.54166667 1.54166667 0 0 Z " fill="#58B4EA" transform="translate(201,83)"/>
<path d="M0 0 C3.875 1.875 3.875 1.875 5 3 C5.04063832 4.66617115 5.042721 6.33388095 5 8 C3.68 7.67 2.36 7.34 1 7 C0.67 4.69 0.34 2.38 0 0 Z " fill="#5788C3" transform="translate(212,143)"/>
<path d="M0 0 C2.99324263 1.0975223 3.84610901 1.67682892 5.25 4.625 C5.4975 5.40875 5.745 6.1925 6 7 C3 7 3 7 0.8125 5 C0.214375 4.34 -0.38375 3.68 -1 3 C-0.67 2.01 -0.34 1.02 0 0 Z " fill="#3F65B5" transform="translate(132,167)"/>
<path d="M0 0 C1.65 0.33 3.3 0.66 5 1 C4.01 2.32 3.02 3.64 2 5 C3.32 5.33 4.64 5.66 6 6 C2.625 5.6875 2.625 5.6875 -1 5 C-1.66 4.01 -2.32 3.02 -3 2 C-2.01 2 -1.02 2 0 2 C0 1.34 0 0.68 0 0 Z " fill="#5D8ECC" transform="translate(48,161)"/>
<path d="M0 0 C1.32 0 2.64 0 4 0 C4 1.65 4 3.3 4 5 C2.35 4.67 0.7 4.34 -1 4 C-0.67 2.68 -0.34 1.36 0 0 Z " fill="#5E8CC5" transform="translate(102,137)"/>
<path d="M0 0 C0.99 0.33 1.98 0.66 3 1 C3.33 2.65 3.66 4.3 4 6 C2.125 5.75 2.125 5.75 0 5 C-1.25 2.9375 -1.25 2.9375 -2 1 C-1.34 0.67 -0.68 0.34 0 0 Z " fill="#40A7EA" transform="translate(52,120)"/>
<path d="M0 0 C2 0 2 0 4.5 2.375 C5.325 3.24125 6.15 4.1075 7 5 C7.66 5.66 8.32 6.32 9 7 C4.32165993 7 3.2690159 6.1782099 0 3 C0 2.01 0 1.02 0 0 Z " fill="#4C6EB8" transform="translate(135,166)"/>
<path d="M0 0 C1.98 0.495 1.98 0.495 4 1 C4 2.32 4 3.64 4 5 C2.35 4.67 0.7 4.34 -1 4 C-0.67 2.68 -0.34 1.36 0 0 Z " fill="#4E98D9" transform="translate(83,94)"/>
<path d="M0 0 C0.66 0 1.32 0 2 0 C1.71125 0.680625 1.4225 1.36125 1.125 2.0625 C-0.12597355 5.32893093 -1.07447955 8.62846123 -2 12 C-2.33 12 -2.66 12 -3 12 C-2.88541307 10.56163249 -2.75790884 9.12429034 -2.625 7.6875 C-2.55539063 6.88699219 -2.48578125 6.08648437 -2.4140625 5.26171875 C-2 3 -2 3 0 0 Z " fill="#55BEF2" transform="translate(74,28)"/>
<path d="M0 0 C0.33 0 0.66 0 1 0 C1.125 3.375 1.125 3.375 1 7 C0.34 7.66 -0.32 8.32 -1 9 C-2.0326802 6.21176345 -2.04509293 5.1322726 -1.0625 2.25 C-0.711875 1.5075 -0.36125 0.765 0 0 Z " fill="#436CB6" transform="translate(180,158)"/>
<path d="M0 0 C1.65 0 3.3 0 5 0 C4.67 1.32 4.34 2.64 4 4 C2.68 3.67 1.36 3.34 0 3 C0 2.01 0 1.02 0 0 Z " fill="#4F92D3" transform="translate(157,132)"/>
<path d="M0 0 C0.33 0 0.66 0 1 0 C1 2.97 1 5.94 1 9 C0.01 8.34 -0.98 7.68 -2 7 C-1.125 2.25 -1.125 2.25 0 0 Z " fill="#3FB3F7" transform="translate(9,109)"/>
<path d="M0 0 C4.75 0.875 4.75 0.875 7 2 C6.67 3.65 6.34 5.3 6 7 C5.38125 6.21625 4.7625 5.4325 4.125 4.625 C2.10141339 2.03162353 2.10141339 2.03162353 0 0 Z " fill="#42B1FA" transform="translate(13,106)"/>
<path d="M0 0 C1.65 0 3.3 0 5 0 C5 1.65 5 3.3 5 5 C4.34 4.34 3.68 3.68 3 3 C2.01 3.99 1.02 4.98 0 6 C0 4.02 0 2.04 0 0 Z " fill="#5B7ABB" transform="translate(13,180)"/>
<path d="M0 0 C0.99 0 1.98 0 3 0 C3 1.32 3 2.64 3 4 C1.02 4 -0.96 4 -3 4 C-3 3.34 -3 2.68 -3 2 C-2.01 2 -1.02 2 0 2 C0 1.34 0 0.68 0 0 Z " fill="#5188C7" transform="translate(229,143)"/>
<path d="M0 0 C0.99 0.66 1.98 1.32 3 2 C2.67 3.32 2.34 4.64 2 6 C0.68 5.67 -0.64 5.34 -2 5 C-1.34 3.35 -0.68 1.7 0 0 Z " fill="#5398D7" transform="translate(242,129)"/>
</svg>
